<svg id="my-svg" width="100%" xmlns="http://www.w3.org/2000/svg" xmlns:xlink="http://www.w3.org/1999/xlink" class="flowchart" style="max-width: 585.547px; background-color: transparent;" viewBox="0 0 585.546875 534" role="graphics-document document" aria-roledescription="flowchart-v2"><style>#my-svg{font-family:"trebuchet ms",verdana,arial,sans-serif;font-size:16px;fill:#ccc;}@keyframes edge-animation-frame{from{stroke-dashoffset:0;}}@keyframes dash{to{stroke-dashoffset:0;}}#my-svg .edge-animation-slow{stroke-dasharray:9,5!important;stroke-dashoffset:900;animation:dash 50s linear infinite;stroke-linecap:round;}#my-svg .edge-animation-fast{stroke-dasharray:9,5!important;stroke-dashoffset:900;animation:dash 20s linear infinite;stroke-linecap:round;}#my-svg .error-icon{fill:#a44141;}#my-svg .error-text{fill:#ddd;stroke:#ddd;}#my-svg .edge-thickness-normal{stroke-width:1px;}#my-svg .edge-thickness-thick{stroke-width:3.5px;}#my-svg .edge-pattern-solid{stroke-dasharray:0;}#my-svg .edge-thickness-invisible{stroke-width:0;fill:none;}#my-svg .edge-pattern-dashed{stroke-dasharray:3;}#my-svg .edge-pattern-dotted{stroke-dasharray:2;}#my-svg .marker{fill:lightgrey;stroke:lightgrey;}#my-svg .marker.cross{stroke:lightgrey;}#my-svg svg{font-family:"trebuchet ms",verdana,arial,sans-serif;font-size:16px;}#my-svg p{margin:0;}#my-svg .label{font-family:"trebuchet ms",verdana,arial,sans-serif;color:#ccc;}#my-svg .cluster-label text{fill:#F9FFFE;}#my-svg .cluster-label span{color:#F9FFFE;}#my-svg .cluster-label span p{background-color:transparent;}#my-svg .label text,#my-svg span{fill:#ccc;color:#ccc;}#my-svg .node rect,#my-svg .node circle,#my-svg .node ellipse,#my-svg .node polygon,#my-svg .node path{fill:#1f2020;stroke:#ccc;stroke-width:1px;}#my-svg .rough-node .label text,#my-svg .node .label text,#my-svg .image-shape .label,#my-svg .icon-shape .label{text-anchor:middle;}#my-svg .node .katex path{fill:#000;stroke:#000;stroke-width:1px;}#my-svg .rough-node .label,#my-svg .node .label,#my-svg .image-shape .label,#my-svg .icon-shape .label{text-align:center;}#my-svg .node.clickable{cursor:pointer;}#my-svg .root .anchor path{fill:lightgrey!important;stroke-width:0;stroke:lightgrey;}#my-svg .arrowheadPath{fill:lightgrey;}#my-svg .edgePath .path{stroke:lightgrey;stroke-width:1px;}#my-svg .flowchart-link{stroke:lightgrey;fill:none;}#my-svg .edgeLabel{background-color:hsl(0, 0%, 34.4117647059%);text-align:center;}#my-svg .edgeLabel p{background-color:hsl(0, 0%, 34.4117647059%);}#my-svg .edgeLabel rect{opacity:0.5;background-color:hsl(0, 0%, 34.4117647059%);fill:hsl(0, 0%, 34.4117647059%);}#my-svg .labelBkg{background-color:rgba(87.75, 87.75, 87.75, 0.5);}#my-svg .cluster rect{fill:hsl(180, 1.5873015873%, 28.3529411765%);stroke:rgba(255, 255, 255, 0.25);stroke-width:1px;}#my-svg .cluster text{fill:#F9FFFE;}#my-svg .cluster span{color:#F9FFFE;}#my-svg div.mermaidTooltip{position:absolute;text-align:center;max-width:200px;padding:2px;font-family:"trebuchet ms",verdana,arial,sans-serif;font-size:12px;background:hsl(20, 1.5873015873%, 12.3529411765%);border:1px solid rgba(255, 255, 255, 0.25);border-radius:2px;pointer-events:none;z-index:100;}#my-svg .flowchartTitleText{text-anchor:middle;font-size:18px;fill:#ccc;}#my-svg rect.text{fill:none;stroke-width:0;}#my-svg .icon-shape,#my-svg .image-shape{background-color:hsl(0, 0%, 34.4117647059%);text-align:center;}#my-svg .icon-shape p,#my-svg .image-shape p{background-color:hsl(0, 0%, 34.4117647059%);padding:2px;}#my-svg .icon-shape .label rect,#my-svg .image-shape .label rect{opacity:0.5;background-color:hsl(0, 0%, 34.4117647059%);fill:hsl(0, 0%, 34.4117647059%);}#my-svg .label-icon{display:inline-block;height:1em;overflow:visible;vertical-align:-0.125em;}#my-svg .node .label-icon path{fill:currentColor;stroke:revert;stroke-width:revert;}#my-svg .node .neo-node{stroke:#ccc;}#my-svg [data-look="neo"].node rect,#my-svg [data-look="neo"].cluster rect,#my-svg [data-look="neo"].node polygon{stroke:url(#my-svg-gradient);filter:drop-shadow( 1px 2px 2px rgba(185,185,185,1));}#my-svg [data-look="neo"].node path{stroke:url(#my-svg-gradient);stroke-width:1px;}#my-svg [data-look="neo"].node .outer-path{filter:drop-shadow( 1px 2px 2px rgba(185,185,185,1));}#my-svg [data-look="neo"].node .neo-line path{stroke:#ccc;filter:none;}#my-svg [data-look="neo"].node circle{stroke:url(#my-svg-gradient);filter:drop-shadow( 1px 2px 2px rgba(185,185,185,1));}#my-svg [data-look="neo"].node circle .state-start{fill:#000000;}#my-svg [data-look="neo"].icon-shape .icon{fill:url(#my-svg-gradient);filter:drop-shadow( 1px 2px 2px rgba(185,185,185,1));}#my-svg [data-look="neo"].icon-shape .icon-neo path{stroke:url(#my-svg-gradient);filter:drop-shadow( 1px 2px 2px rgba(185,185,185,1));}#my-svg :root{--mermaid-font-family:"trebuchet ms",verdana,arial,sans-serif;}#my-svg .tool&gt;*{stroke:rgb(59, 130, 246)!important;stroke-width:2px!important;}#my-svg .tool span{stroke:rgb(59, 130, 246)!important;stroke-width:2px!important;}#my-svg .agent&gt;*{stroke:rgb(16, 185, 129)!important;stroke-width:2px!important;}#my-svg .agent span{stroke:rgb(16, 185, 129)!important;stroke-width:2px!important;}#my-svg .ship&gt;*{stroke:rgb(249, 115, 22)!important;stroke-width:2px!important;}#my-svg .ship span{stroke:rgb(249, 115, 22)!important;stroke-width:2px!important;}#my-svg .ambient&gt;*{stroke:rgb(168, 85, 247)!important;stroke-width:2px!important;}#my-svg .ambient span{stroke:rgb(168, 85, 247)!important;stroke-width:2px!important;}</style><g><marker id="my-svg_flowchart-v2-pointEnd" class="marker flowchart-v2" viewBox="0 0 10 10" refX="5" refY="5" markerUnits="userSpaceOnUse" markerWidth="8" markerHeight="8" orient="auto"><path d="M 0 0 L 10 5 L 0 10 z" class="arrowMarkerPath" style="stroke-width: 1; stroke-dasharray: 1, 0;"/></marker><marker id="my-svg_flowchart-v2-pointStart" class="marker flowchart-v2" viewBox="0 0 10 10" refX="4.5" refY="5" markerUnits="userSpaceOnUse" markerWidth="8" markerHeight="8" orient="auto"><path d="M 0 5 L 10 10 L 10 0 z" class="arrowMarkerPath" style="stroke-width: 1; stroke-dasharray: 1, 0;"/></marker><marker id="my-svg_flowchart-v2-pointEnd-margin" class="marker flowchart-v2" viewBox="0 0 11.5 14" refX="11.5" refY="7" markerUnits="userSpaceOnUse" markerWidth="10.5" markerHeight="14" orient="auto"><path d="M 0 0 L 11.5 7 L 0 14 z" class="arrowMarkerPath" style="stroke-width: 0; stroke-dasharray: 1, 0;"/></marker><marker id="my-svg_flowchart-v2-pointStart-margin" class="marker flowchart-v2" viewBox="0 0 11.5 14" refX="1" refY="7" markerUnits="userSpaceOnUse" markerWidth="11.5" markerHeight="14" orient="auto"><polygon points="0,7 11.5,14 11.5,0" class="arrowMarkerPath" style="stroke-width: 0; stroke-dasharray: 1, 0;"/></marker><marker id="my-svg_flowchart-v2-circleEnd" class="marker flowchart-v2" viewBox="0 0 10 10" refX="11" refY="5" markerUnits="userSpaceOnUse" markerWidth="11" markerHeight="11" orient="auto"><circle cx="5" cy="5" r="5" class="arrowMarkerPath" style="stroke-width: 1; stroke-dasharray: 1, 0;"/></marker><marker id="my-svg_flowchart-v2-circleStart" class="marker flowchart-v2" viewBox="0 0 10 10" refX="-1" refY="5" markerUnits="userSpaceOnUse" markerWidth="11" markerHeight="11" orient="auto"><circle cx="5" cy="5" r="5" class="arrowMarkerPath" style="stroke-width: 1; stroke-dasharray: 1, 0;"/></marker><marker id="my-svg_flowchart-v2-circleEnd-margin" class="marker flowchart-v2" viewBox="0 0 10 10" refY="5" refX="12.25" markerUnits="userSpaceOnUse" markerWidth="14" markerHeight="14" orient="auto"><circle cx="5" cy="5" r="5" class="arrowMarkerPath" style="stroke-width: 0; stroke-dasharray: 1, 0;"/></marker><marker id="my-svg_flowchart-v2-circleStart-margin" class="marker flowchart-v2" viewBox="0 0 10 10" refX="-2" refY="5" markerUnits="userSpaceOnUse" markerWidth="14" markerHeight="14" orient="auto"><circle cx="5" cy="5" r="5" class="arrowMarkerPath" style="stroke-width: 0; stroke-dasharray: 1, 0;"/></marker><marker id="my-svg_flowchart-v2-crossEnd" class="marker cross flowchart-v2" viewBox="0 0 11 11" refX="12" refY="5.2" markerUnits="userSpaceOnUse" markerWidth="11" markerHeight="11" orient="auto"><path d="M 1,1 l 9,9 M 10,1 l -9,9" class="arrowMarkerPath" style="stroke-width: 2; stroke-dasharray: 1, 0;"/></marker><marker id="my-svg_flowchart-v2-crossStart" class="marker cross flowchart-v2" viewBox="0 0 11 11" refX="-1" refY="5.2" markerUnits="userSpaceOnUse" markerWidth="11" markerHeight="11" orient="auto"><path d="M 1,1 l 9,9 M 10,1 l -9,9" class="arrowMarkerPath" style="stroke-width: 2; stroke-dasharray: 1, 0;"/></marker><marker id="my-svg_flowchart-v2-crossEnd-margin" class="marker cross flowchart-v2" viewBox="0 0 15 15" refX="17.7" refY="7.5" markerUnits="userSpaceOnUse" markerWidth="12" markerHeight="12" orient="auto"><path d="M 1,1 L 14,14 M 1,14 L 14,1" class="arrowMarkerPath" style="stroke-width: 2.5;"/></marker><marker id="my-svg_flowchart-v2-crossStart-margin" class="marker cross flowchart-v2" viewBox="0 0 15 15" refX="-3.5" refY="7.5" markerUnits="userSpaceOnUse" markerWidth="12" markerHeight="12" orient="auto"><path d="M 1,1 L 14,14 M 1,14 L 14,1" class="arrowMarkerPath" style="stroke-width: 2.5; stroke-dasharray: 1, 0;"/></marker><g class="root"><g class="clusters"/><g class="edgePaths"><path d="M223.535,62L223.535,68.167C223.535,74.333,223.535,86.667,229.717,98.547C235.899,110.428,248.263,121.857,254.444,127.571L260.626,133.285" id="my-svg-L_hop_fab_0" class="edge-thickness-normal edge-pattern-dotted edge-thickness-normal edge-pattern-solid flowchart-link" style=";" data-edge="true" data-et="edge" data-id="L_hop_fab_0" data-points="W3sieCI6MjIzLjUzNTE1NjI1LCJ5Ijo2Mn0seyJ4IjoyMjMuNTM1MTU2MjUsInkiOjk5fSx7IngiOjI2My41NjM1Mzc1OTc2NTYyNSwieSI6MTM2fV0=" data-look="classic" marker-end="url(#my-svg_flowchart-v2-pointEnd)"/><path d="M362.012,62L362.012,68.167C362.012,74.333,362.012,86.667,355.83,98.547C349.648,110.428,337.284,121.857,331.103,127.571L324.921,133.285" id="my-svg-L_idea_fab_0" class="edge-thickness-normal edge-pattern-solid edge-thickness-normal edge-pattern-solid flowchart-link" style=";" data-edge="true" data-et="edge" data-id="L_idea_fab_0" data-points="W3sieCI6MzYyLjAxMTcxODc1LCJ5Ijo2Mn0seyJ4IjozNjIuMDExNzE4NzUsInkiOjk5fSx7IngiOjMyMS45ODMzMzc0MDIzNDM3NSwieSI6MTM2fV0=" data-look="classic" marker-end="url(#my-svg_flowchart-v2-pointEnd)"/><path d="M240.984,176.04L215.197,182.534C189.409,189.027,137.833,202.013,112.046,212.007C86.258,222,86.258,229,86.258,232.5L86.258,236" id="my-svg-L_fab_w1_0" class="edge-thickness-normal edge-pattern-solid edge-thickness-normal edge-pattern-solid flowchart-link" style=";" data-edge="true" data-et="edge" data-id="L_fab_w1_0" data-points="W3sieCI6MjQwLjk4NDM3NSwieSI6MTc2LjA0MDMyNjg1MTc4MTh9LHsieCI6ODYuMjU3ODEyNSwieSI6MjE1fSx7IngiOjg2LjI1NzgxMjUsInkiOjI0MH1d" data-look="classic" marker-end="url(#my-svg_flowchart-v2-pointEnd)"/><path d="M292.773,190L292.773,194.167C292.773,198.333,292.773,206.667,292.773,214.333C292.773,222,292.773,229,292.773,232.5L292.773,236" id="my-svg-L_fab_w2_0" class="edge-thickness-normal edge-pattern-solid edge-thickness-normal edge-pattern-solid flowchart-link" style=";" data-edge="true" data-et="edge" data-id="L_fab_w2_0" data-points="W3sieCI6MjkyLjc3MzQzNzUsInkiOjE5MH0seyJ4IjoyOTIuNzczNDM3NSwieSI6MjE1fSx7IngiOjI5Mi43NzM0Mzc1LCJ5IjoyNDB9XQ==" data-look="classic" marker-end="url(#my-svg_flowchart-v2-pointEnd)"/><path d="M344.563,176.04L370.35,182.534C396.138,189.027,447.714,202.013,473.501,212.007C499.289,222,499.289,229,499.289,232.5L499.289,236" id="my-svg-L_fab_w3_0" class="edge-thickness-normal edge-pattern-solid edge-thickness-normal edge-pattern-solid flowchart-link" style=";" data-edge="true" data-et="edge" data-id="L_fab_w3_0" data-points="W3sieCI6MzQ0LjU2MjUsInkiOjE3Ni4wNDAzMjY4NTE3ODE4fSx7IngiOjQ5OS4yODkwNjI1LCJ5IjoyMTV9LHsieCI6NDk5LjI4OTA2MjUsInkiOjI0MH1d" data-look="classic" marker-end="url(#my-svg_flowchart-v2-pointEnd)"/><path d="M86.258,294L86.258,298.167C86.258,302.333,86.258,310.667,111.326,321.145C136.395,331.624,186.531,344.249,211.6,350.561L236.668,356.873" id="my-svg-L_w1_rk_0" class="edge-thickness-normal edge-pattern-solid edge-thickness-normal edge-pattern-solid flowchart-link" style=";" data-edge="true" data-et="edge" data-id="L_w1_rk_0" data-points="W3sieCI6ODYuMjU3ODEyNSwieSI6Mjk0fSx7IngiOjg2LjI1NzgxMjUsInkiOjMxOX0seyJ4IjoyNDAuNTQ2ODc1LCJ5IjozNTcuODQ5NTExOTkyMTMxMzR9XQ==" data-look="classic" marker-end="url(#my-svg_flowchart-v2-pointEnd)"/><path d="M292.773,294L292.773,298.167C292.773,302.333,292.773,310.667,292.773,318.333C292.773,326,292.773,333,292.773,336.5L292.773,340" id="my-svg-L_w2_rk_0" class="edge-thickness-normal edge-pattern-solid edge-thickness-normal edge-pattern-solid flowchart-link" style=";" data-edge="true" data-et="edge" data-id="L_w2_rk_0" data-points="W3sieCI6MjkyLjc3MzQzNzUsInkiOjI5NH0seyJ4IjoyOTIuNzczNDM3NSwieSI6MzE5fSx7IngiOjI5Mi43NzM0Mzc1LCJ5IjozNDR9XQ==" data-look="classic" marker-end="url(#my-svg_flowchart-v2-pointEnd)"/><path d="M499.289,294L499.289,298.167C499.289,302.333,499.289,310.667,474.221,321.145C449.152,331.624,399.016,344.249,373.947,350.561L348.879,356.873" id="my-svg-L_w3_rk_0" class="edge-thickness-normal edge-pattern-solid edge-thickness-normal edge-pattern-solid flowchart-link" style=";" data-edge="true" data-et="edge" data-id="L_w3_rk_0" data-points="W3sieCI6NDk5LjI4OTA2MjUsInkiOjI5NH0seyJ4Ijo0OTkuMjg5MDYyNSwieSI6MzE5fSx7IngiOjM0NSwieSI6MzU3Ljg0OTUxMTk5MjEzMTM0fV0=" data-look="classic" marker-end="url(#my-svg_flowchart-v2-pointEnd)"/><path d="M268.786,398L263.308,404.167C257.829,410.333,246.872,422.667,241.47,435.667C236.067,448.667,236.219,462.333,236.295,469.167L236.371,476" id="my-svg-L_rk_ship_0" class="edge-thickness-normal edge-pattern-solid edge-thickness-normal edge-pattern-solid flowchart-link" style=";" data-edge="true" data-et="edge" data-id="L_rk_ship_0" data-points="W3sieCI6MjY4Ljc4NjM1NDE2OTI0OTUzLCJ5IjozOTh9LHsieCI6MjM1LjkxNTE2NTkwMTE4NDA4LCJ5Ijo0MzV9LHsieCI6MjM2LjQxNTE2NTkwMTE4NDA4LCJ5Ijo0ODB9XQ==" data-look="classic" marker-end="url(#my-svg_flowchart-v2-pointEnd)"/><path d="M316.761,398L322.239,404.167C327.718,410.333,338.675,422.667,344.153,434.333C349.632,446,349.632,457,349.632,462.5L349.632,468" id="my-svg-L_rk_tu_0" class="edge-thickness-normal edge-pattern-dotted edge-thickness-normal edge-pattern-solid flowchart-link" style=";" data-edge="true" data-et="edge" data-id="L_rk_tu_0" data-points="W3sieCI6MzE2Ljc2MDUyMDgzMDc1MDQ3LCJ5IjozOTh9LHsieCI6MzQ5LjYzMTcwOTA5ODgxNTksInkiOjQzNX0seyJ4IjozNDkuNjMxNzA5MDk4ODE1OSwieSI6NDcyfV0=" data-look="classic" marker-end="url(#my-svg_flowchart-v2-pointEnd)"/></g><g class="edgeLabels"><g class="edgeLabel" transform="translate(223.53515625, 99)"><g class="label" data-id="L_hop_fab_0" transform="translate(-30.25, -12)"><foreignObject width="60.5" height="24"><div xmlns="http://www.w3.org/1999/xhtml" class="labelBkg" style="display: table-cell; white-space: nowrap; line-height: 1.5; max-width: 200px; text-align: center;"><span class="edgeLabel"><p>navigate</p></span></div></foreignObject></g></g><g class="edgeLabel"><g class="label" data-id="L_idea_fab_0" transform="translate(0, 0)"><foreignObject width="0" height="0"><div xmlns="http://www.w3.org/1999/xhtml" class="labelBkg" style="display: table-cell; white-space: nowrap; line-height: 1.5; max-width: 200px; text-align: center;"><span class="edgeLabel"></span></div></foreignObject></g></g><g class="edgeLabel"><g class="label" data-id="L_fab_w1_0" transform="translate(0, 0)"><foreignObject width="0" height="0"><div xmlns="http://www.w3.org/1999/xhtml" class="labelBkg" style="display: table-cell; white-space: nowrap; line-height: 1.5; max-width: 200px; text-align: center;"><span class="edgeLabel"></span></div></foreignObject></g></g><g class="edgeLabel"><g class="label" data-id="L_fab_w2_0" transform="translate(0, 0)"><foreignObject width="0" height="0"><div xmlns="http://www.w3.org/1999/xhtml" class="labelBkg" style="display: table-cell; white-space: nowrap; line-height: 1.5; max-width: 200px; text-align: center;"><span class="edgeLabel"></span></div></foreignObject></g></g><g class="edgeLabel"><g class="label" data-id="L_fab_w3_0" transform="translate(0, 0)"><foreignObject width="0" height="0"><div xmlns="http://www.w3.org/1999/xhtml" class="labelBkg" style="display: table-cell; white-space: nowrap; line-height: 1.5; max-width: 200px; text-align: center;"><span class="edgeLabel"></span></div></foreignObject></g></g><g class="edgeLabel"><g class="label" data-id="L_w1_rk_0" transform="translate(0, 0)"><foreignObject width="0" height="0"><div xmlns="http://www.w3.org/1999/xhtml" class="labelBkg" style="display: table-cell; white-space: nowrap; line-height: 1.5; max-width: 200px; text-align: center;"><span class="edgeLabel"></span></div></foreignObject></g></g><g class="edgeLabel"><g class="label" data-id="L_w2_rk_0" transform="translate(0, 0)"><foreignObject width="0" height="0"><div xmlns="http://www.w3.org/1999/xhtml" class="labelBkg" style="display: table-cell; white-space: nowrap; line-height: 1.5; max-width: 200px; text-align: center;"><span class="edgeLabel"></span></div></foreignObject></g></g><g class="edgeLabel"><g class="label" data-id="L_w3_rk_0" transform="translate(0, 0)"><foreignObject width="0" height="0"><div xmlns="http://www.w3.org/1999/xhtml" class="labelBkg" style="display: table-cell; white-space: nowrap; line-height: 1.5; max-width: 200px; text-align: center;"><span class="edgeLabel"></span></div></foreignObject></g></g><g class="edgeLabel"><g class="label" data-id="L_rk_ship_0" transform="translate(0, 0)"><foreignObject width="0" height="0"><div xmlns="http://www.w3.org/1999/xhtml" class="labelBkg" style="display: table-cell; white-space: nowrap; line-height: 1.5; max-width: 200px; text-align: center;"><span class="edgeLabel"></span></div></foreignObject></g></g><g class="edgeLabel" transform="translate(349.6317090988159, 435)"><g class="label" data-id="L_rk_tu_0" transform="translate(-23.5703125, -12)"><foreignObject width="47.140625" height="24"><div xmlns="http://www.w3.org/1999/xhtml" class="labelBkg" style="display: table-cell; white-space: nowrap; line-height: 1.5; max-width: 200px; text-align: center;"><span class="edgeLabel"><p>tokens</p></span></div></foreignObject></g></g></g><g class="nodes"><g class="node default ambient" id="my-svg-flowchart-hop-0" data-look="classic" transform="translate(223.53515625, 35)"><rect class="basic label-container" style="stroke:#a855f7 !important;stroke-width:2px !important" x="-43.3515625" y="-27" width="86.703125" height="54"/><g class="label" style="" transform="translate(-13.3515625, -12)"><rect/><foreignObject width="26.703125" height="24"><div xmlns="http://www.w3.org/1999/xhtml" style="display: table-cell; white-space: nowrap; line-height: 1.5; max-width: 200px; text-align: center;"><span class="nodeLabel"><p>hop</p></span></div></foreignObject></g></g><g class="node default tool" id="my-svg-flowchart-fab-1" data-look="classic" transform="translate(292.7734375, 163)"><rect class="basic label-container" style="stroke:#3b82f6 !important;stroke-width:2px !important" x="-51.7890625" y="-27" width="103.578125" height="54"/><g class="label" style="" transform="translate(-21.7890625, -12)"><rect/><foreignObject width="43.578125" height="24"><div xmlns="http://www.w3.org/1999/xhtml" style="display: table-cell; white-space: nowrap; line-height: 1.5; max-width: 200px; text-align: center;"><span class="nodeLabel"><p>fab-kit</p></span></div></foreignObject></g></g><g class="node default tool" id="my-svg-flowchart-idea-2" data-look="classic" transform="translate(362.01171875, 35)"><rect class="basic label-container" style="stroke:#3b82f6 !important;stroke-width:2px !important" x="-45.125" y="-27" width="90.25" height="54"/><g class="label" style="" transform="translate(-15.125, -12)"><rect/><foreignObject width="30.25" height="24"><div xmlns="http://www.w3.org/1999/xhtml" style="display: table-cell; white-space: nowrap; line-height: 1.5; max-width: 200px; text-align: center;"><span class="nodeLabel"><p>idea</p></span></div></foreignObject></g></g><g class="node default agent" id="my-svg-flowchart-w1-5" data-look="classic" transform="translate(86.2578125, 267)"><rect class="basic label-container" style="stroke:#10b981 !important;stroke-width:2px !important" x="-78.2578125" y="-27" width="156.515625" height="54"/><g class="label" style="" transform="translate(-48.2578125, -12)"><rect/><foreignObject width="96.515625" height="24"><div xmlns="http://www.w3.org/1999/xhtml" style="display: table-cell; white-space: nowrap; line-height: 1.5; max-width: 200px; text-align: center;"><span class="nodeLabel"><p>wt + agent #1</p></span></div></foreignObject></g></g><g class="node default agent" id="my-svg-flowchart-w2-7" data-look="classic" transform="translate(292.7734375, 267)"><rect class="basic label-container" style="stroke:#10b981 !important;stroke-width:2px !important" x="-78.2578125" y="-27" width="156.515625" height="54"/><g class="label" style="" transform="translate(-48.2578125, -12)"><rect/><foreignObject width="96.515625" height="24"><div xmlns="http://www.w3.org/1999/xhtml" style="display: table-cell; white-space: nowrap; line-height: 1.5; max-width: 200px; text-align: center;"><span class="nodeLabel"><p>wt + agent #2</p></span></div></foreignObject></g></g><g class="node default agent" id="my-svg-flowchart-w3-9" data-look="classic" transform="translate(499.2890625, 267)"><rect class="basic label-container" style="stroke:#10b981 !important;stroke-width:2px !important" x="-78.2578125" y="-27" width="156.515625" height="54"/><g class="label" style="" transform="translate(-48.2578125, -12)"><rect/><foreignObject width="96.515625" height="24"><div xmlns="http://www.w3.org/1999/xhtml" style="display: table-cell; white-space: nowrap; line-height: 1.5; max-width: 200px; text-align: center;"><span class="nodeLabel"><p>wt + agent #3</p></span></div></foreignObject></g></g><g class="node default tool" id="my-svg-flowchart-rk-11" data-look="classic" transform="translate(292.7734375, 371)"><rect class="basic label-container" style="stroke:#3b82f6 !important;stroke-width:2px !important" x="-52.2265625" y="-27" width="104.453125" height="54"/><g class="label" style="" transform="translate(-22.2265625, -12)"><rect/><foreignObject width="44.453125" height="24"><div xmlns="http://www.w3.org/1999/xhtml" style="display: table-cell; white-space: nowrap; line-height: 1.5; max-width: 200px; text-align: center;"><span class="nodeLabel"><p>run-kit</p></span></div></foreignObject></g></g><g class="node default ship" id="my-svg-flowchart-ship-17" data-look="classic" transform="translate(235.91516590118408, 499)"><g class="basic label-container outer-path"><path d="M-7.5546875 -19.5 C-3.8823792470956575 -19.5, -0.21007099419131503 -19.5, 7.5546875 -19.5 C7.5546875 -19.5, 7.554687499999999 -19.5, 7.554687499999999 -19.5 C7.854762134925368 -19.490377190517787, 8.154836769850736 -19.480754381035574, 8.8040567896239 -19.45993515863156 C9.094888924989185 -19.431878932309687, 9.38572106035447 -19.403822705987814, 10.048292152847864 -19.3399052695533 C10.42074081332245 -19.27969065851027, 10.793189473797035 -19.21947604746724, 11.282280759676757 -19.140403561325776 C11.587469429330183 -19.07074623901957, 11.892658098983606 -19.001088916713364, 12.50095188623539 -18.862249829261074 C12.823696726563313 -18.766460854773985, 13.146441566891234 -18.670671880286896, 13.699297751460602 -18.50658706670804 C14.152530872287041 -18.339793088602867, 14.605763993113479 -18.1729991104977, 14.872394095147794 -18.074876768247425 C15.236245752824122 -17.913810432670054, 15.60009741050045 -17.752744097092684, 16.01542041279238 -17.568892924097174 C16.390702829252582 -17.37310832780975, 16.765985245712784 -17.17732373152232, 17.123679764076783 -16.990714730406097 C17.42149895088415 -16.81017498918366, 17.719318137691516 -16.629635247961225, 18.192618073605697 -16.342718045390892 C18.582878375119478 -16.070489353151046, 18.97313867663326 -15.798260660911202, 19.217842844578712 -15.627565626425154 C19.430833105997774 -15.457711560852344, 19.64382336741684 -15.287857495279535, 20.19514120850187 -14.848196188198123 C20.482975970866143 -14.586792272709376, 20.770810733230416 -14.325388357220628, 21.120497236767985 -14.007812326905688 C21.354836098868663 -13.765838212208353, 21.589174960969338 -13.523864097511018, 21.990108442968648 -13.10986736009568 C22.180121156531957 -12.886667614714524, 22.37013387009527 -12.663467869333367, 22.800401408126582 -12.158051136245305 C23.003542673124265 -11.885860347698364, 23.20668393812195 -11.613669559151422, 23.548046464640635 -11.156274872382312 C23.762270405936142 -10.827169371369612, 23.976494347231647 -10.498063870356912, 24.229971378604247 -10.108655082055241 C24.45704182667199 -9.70546850813478, 24.684112274739736 -9.302281934214317, 24.8433739742735 -9.019496659696287 C25.048266897772745 -8.594032120043847, 25.25315982127199 -8.168567580391406, 25.38573364880834 -7.893275190886684 C25.496961107653693 -7.618541217102037, 25.60818856649905 -7.343807243317389, 25.854821729970325 -6.734618561215508 C25.95365381391052 -6.436952071141767, 26.052485897850715 -6.139285581068027, 26.24871063421488 -5.548287939305138 C26.348682580440798 -5.167051580230146, 26.44865452666671 -4.785815221155155, 26.56578178754556 -4.339158212148133 C26.633512303781654 -3.9913763261254798, 26.701242820017743 -3.643594440102826, 26.804732276581777 -3.1121979531509023 C26.853859646048267 -2.7311757768651983, 26.902987015514757 -2.3501536005794943, 26.964580202509367 -1.872449005199798 C26.988953013830724 -1.4928227954904572, 27.01332582515208 -1.1131965857811164, 27.044668715913414 -0.6250057626472757 C27.044668715913414 -0.37419266980896576, 27.044668715913414 -0.12337957697065582, 27.044668715913414 0.625005762647271 C27.013042293310146 1.1176128230820337, 26.981415870706876 1.6102198835167965, 26.964580202509367 1.8724490051997846 C26.906634571318442 2.3218638780574827, 26.848688940127513 2.771278750915181, 26.804732276581777 3.1121979531508885 C26.731438534358226 3.4885458288309272, 26.658144792134674 3.8648937045109655, 26.56578178754556 4.339158212148129 C26.469255011403497 4.707256644547229, 26.372728235261434 5.07535507694633, 26.248710634214884 5.548287939305125 C26.13055320872389 5.90415927905485, 26.012395783232893 6.260030618804576, 25.85482172997033 6.734618561215495 C25.742779909666066 7.011364023548258, 25.630738089361802 7.288109485881021, 25.385733648808344 7.893275190886679 C25.26799056049543 8.137771233066951, 25.150247472182517 8.382267275247225, 24.843373974273504 9.019496659696284 C24.615478029617726 9.424148986399395, 24.38758208496195 9.828801313102506, 24.22997137860425 10.108655082055236 C24.056107550105132 10.37575661160491, 23.88224372160601 10.642858141154582, 23.54804646464064 11.156274872382301 C23.280646155239676 11.514566926310264, 23.013245845838707 11.87285898023823, 22.800401408126582 12.158051136245302 C22.567399232066972 12.431748750444326, 22.33439705600736 12.70544636464335, 21.99010844296866 13.10986736009567 C21.796492088900212 13.30979214186964, 21.602875734831766 13.509716923643609, 21.12049723676799 14.007812326905684 C20.886078846228454 14.220704906822958, 20.65166045568892 14.43359748674023, 20.195141208501887 14.848196188198111 C19.893611882700093 15.088657801492694, 19.592082556898298 15.329119414787277, 19.217842844578715 15.627565626425152 C18.859797067359803 15.87732286106118, 18.501751290140888 16.127080095697206, 18.192618073605708 16.34271804539089 C17.918589027816797 16.50883606332155, 17.644559982027886 16.674954081252206, 17.123679764076787 16.990714730406093 C16.891280520115924 17.111957267121657, 16.65888127615506 17.23319980383722, 16.015420412792388 17.56889292409717 C15.649667285146862 17.730800984024803, 15.283914157501338 17.892709043952436, 14.872394095147804 18.07487676824742 C14.416699043966718 18.242576759480936, 13.961003992785631 18.410276750714452, 13.699297751460616 18.506587066708033 C13.273610313032878 18.632928863954426, 12.847922874605139 18.75927066120082, 12.500951886235413 18.86224982926107 C12.042828532664418 18.96681349517938, 11.584705179093422 19.07137716109769, 11.282280759676766 19.140403561325773 C10.946526360676774 19.194685728741838, 10.61077196167678 19.248967896157907, 10.048292152847878 19.3399052695533 C9.593229786251866 19.38380458876625, 9.138167419655856 19.427703907979197, 8.8040567896239 19.45993515863156 C8.551364220457515 19.468038517488477, 8.298671651291128 19.476141876345395, 7.5546875000000036 19.5 C7.554687500000003 19.5, 7.554687500000002 19.5, 7.5546875 19.5 C2.3721747022945907 19.5, -2.8103380954108186 19.5, -7.5546874999999964 19.5 C-7.874714570661464 19.489737354738793, -8.194741641322931 19.479474709477582, -8.804056789623893 19.45993515863156 C-9.064271668844484 19.434832542187326, -9.324486548065074 19.409729925743097, -10.048292152847871 19.3399052695533 C-10.482294582742218 19.26973912242709, -10.916297012636566 19.199572975300885, -11.282280759676759 19.140403561325773 C-11.54263444916835 19.080979530665918, -11.802988138659941 19.021555500006063, -12.500951886235388 18.862249829261074 C-12.935696864683432 18.733219801680654, -13.370441843131479 18.604189774100234, -13.699297751460593 18.506587066708043 C-14.116215040449339 18.353157650419014, -14.533132329438084 18.19972823412998, -14.872394095147797 18.074876768247425 C-15.110813101877216 17.96933574641686, -15.349232108606635 17.863794724586295, -16.01542041279238 17.568892924097174 C-16.3668862027328 17.38553344660984, -16.718351992673217 17.20217396912251, -17.12367976407678 16.990714730406097 C-17.490950900597188 16.768072809122657, -17.8582220371176 16.545430887839217, -18.192618073605686 16.3427180453909 C-18.484524926765385 16.139096461070704, -18.776431779925083 15.93547487675051, -19.217842844578712 15.627565626425156 C-19.47820985366208 15.419929865338267, -19.738576862745447 15.212294104251377, -20.19514120850187 14.848196188198125 C-20.454010671732277 14.613097791002936, -20.712880134962685 14.377999393807745, -21.120497236767974 14.007812326905697 C-21.455839513543474 13.661543894022044, -21.791181790318973 13.315275461138391, -21.990108442968655 13.109867360095677 C-22.225899348783262 12.832893945243214, -22.461690254597872 12.55592053039075, -22.80040140812658 12.158051136245307 C-23.059605642470167 11.810741076216432, -23.318809876813756 11.46343101618756, -23.548046464640635 11.156274872382316 C-23.760173654284277 10.830390544963533, -23.97230084392792 10.504506217544751, -24.229971378604244 10.108655082055249 C-24.409729177256416 9.789476908097395, -24.589486975908592 9.470298734139542, -24.8433739742735 9.019496659696289 C-25.047097181862622 8.59646106015913, -25.250820389451743 8.173425460621974, -25.38573364880834 7.893275190886686 C-25.495750517891203 7.62153139722055, -25.60576738697407 7.349787603554414, -25.854821729970325 6.73461856121551 C-25.98393074533563 6.34576277766325, -26.113039760700932 5.956906994110989, -26.24871063421488 5.5482879393051325 C-26.31744683270994 5.286167023986602, -26.386183031204997 5.02404610866807, -26.565781787545557 4.339158212148136 C-26.619658035478473 4.062515065761649, -26.67353428341139 3.7858719193751615, -26.804732276581777 3.112197953150904 C-26.863568978605684 2.655872110874448, -26.92240568062959 2.1995462685979916, -26.964580202509364 1.872449005199809 C-26.98546907158086 1.5470880082196268, -27.006357940652357 1.2217270112394445, -27.044668715913414 0.6250057626472781 C-27.044668715913414 0.27024675915051716, -27.044668715913414 -0.08451224434624383, -27.044668715913414 -0.6250057626472687 C-27.021963872678278 -0.9786520230541347, -26.999259029443138 -1.3322982834610007, -26.964580202509367 -1.8724490051997822 C-26.910360185507855 -2.292968750110107, -26.856140168506347 -2.7134884950204317, -26.804732276581777 -3.112197953150895 C-26.745911134033133 -3.4142320882853148, -26.687089991484484 -3.716266223419734, -26.56578178754556 -4.339158212148126 C-26.442956035379805 -4.8075460381738795, -26.32013028321405 -5.275933864199633, -26.248710634214884 -5.548287939305123 C-26.13275315874963 -5.897533380091753, -26.016795683284375 -6.246778820878384, -25.854821729970332 -6.734618561215485 C-25.7475403672704 -6.999605601228367, -25.640259004570463 -7.264592641241251, -25.385733648808344 -7.893275190886676 C-25.209547583836255 -8.259129324579108, -25.03336151886416 -8.62498345827154, -24.843373974273504 -9.019496659696282 C-24.615480218741425 -9.424145099388596, -24.38758646320934 -9.82879353908091, -24.229971378604247 -10.108655082055243 C-24.055394692213074 -10.376851752756258, -23.8808180058219 -10.645048423457274, -23.54804646464064 -11.156274872382308 C-23.367540064999424 -11.398137003430238, -23.187033665358207 -11.639999134478167, -22.800401408126586 -12.158051136245302 C-22.534417942809135 -12.470490449495108, -22.268434477491684 -12.782929762744915, -21.990108442968662 -13.10986736009567 C-21.68961061836556 -13.420156035328597, -21.389112793762454 -13.730444710561526, -21.120497236767996 -14.007812326905677 C-20.863118255194305 -14.241557108096222, -20.60573927362061 -14.475301889286767, -20.195141208501887 -14.848196188198107 C-19.831825947199835 -15.137930440861352, -19.468510685897783 -15.427664693524596, -19.21784284457872 -15.627565626425149 C-18.83869484739413 -15.892042856208853, -18.459546850209538 -16.156520085992558, -18.19261807360571 -16.342718045390885 C-17.84566059258539 -16.553045709333883, -17.49870311156507 -16.763373373276877, -17.12367976407679 -16.99071473040609 C-16.85404924407096 -17.13138079998654, -16.584418724065134 -17.272046869566992, -16.015420412792388 -17.56889292409717 C-15.674033262691758 -17.720014888556722, -15.332646112591128 -17.87113685301627, -14.872394095147806 -18.07487676824742 C-14.418407604474348 -18.241947993420368, -13.96442111380089 -18.40901921859332, -13.699297751460618 -18.506587066708033 C-13.258504332299433 -18.6374122397432, -12.817710913138248 -18.76823741277837, -12.500951886235413 -18.862249829261067 C-12.109426016855219 -18.951613054002028, -11.717900147475024 -19.04097627874299, -11.282280759676768 -19.140403561325773 C-11.029685057512703 -19.18124127554273, -10.777089355348638 -19.22207898975969, -10.04829215284788 -19.3399052695533 C-9.73881428899518 -19.36976022687758, -9.429336425142479 -19.399615184201867, -8.804056789623903 -19.45993515863156 C-8.33364004263562 -19.475020508096822, -7.863223295647339 -19.490105857562085, -7.554687500000006 -19.5 C-7.554687500000004 -19.5, -7.554687500000003 -19.5, -7.5546875 -19.5" stroke="none" stroke-width="0" fill="#1f2020" style="stroke:#f97316 !important;stroke-width:2px !important"/><path d="M-7.5546875 -19.5 C-2.1198497464351407 -19.5, 3.3149880071297186 -19.5, 7.5546875 -19.5 M-7.5546875 -19.5 C-4.0658740676142795 -19.5, -0.5770606352285581 -19.5, 7.5546875 -19.5 M7.5546875 -19.5 C7.5546875 -19.5, 7.5546875 -19.5, 7.554687499999999 -19.5 M7.5546875 -19.5 C7.5546875 -19.5, 7.554687499999999 -19.5, 7.554687499999999 -19.5 M7.554687499999999 -19.5 C7.865493128071544 -19.4900330684542, 8.17629875614309 -19.480066136908402, 8.8040567896239 -19.45993515863156 M7.554687499999999 -19.5 C8.040663654339232 -19.484415690625543, 8.526639808678466 -19.468831381251082, 8.8040567896239 -19.45993515863156 M8.8040567896239 -19.45993515863156 C9.12335151631467 -19.42913318035579, 9.442646243005441 -19.398331202080023, 10.048292152847864 -19.3399052695533 M8.8040567896239 -19.45993515863156 C9.093982272766109 -19.43196639595924, 9.383907755908316 -19.403997633286917, 10.048292152847864 -19.3399052695533 M10.048292152847864 -19.3399052695533 C10.497795851509803 -19.267232997506884, 10.947299550171744 -19.194560725460466, 11.282280759676757 -19.140403561325776 M10.048292152847864 -19.3399052695533 C10.504935761206477 -19.266078672277953, 10.96157936956509 -19.192252075002607, 11.282280759676757 -19.140403561325776 M11.282280759676757 -19.140403561325776 C11.609998685059129 -19.06560408341657, 11.937716610441502 -18.990804605507368, 12.50095188623539 -18.862249829261074 M11.282280759676757 -19.140403561325776 C11.548286041122115 -19.07968959168256, 11.814291322567474 -19.01897562203934, 12.50095188623539 -18.862249829261074 M12.50095188623539 -18.862249829261074 C12.835006092212678 -18.763104294413324, 13.169060298189965 -18.663958759565574, 13.699297751460602 -18.50658706670804 M12.50095188623539 -18.862249829261074 C12.900991253850906 -18.74352024480228, 13.30103062146642 -18.624790660343486, 13.699297751460602 -18.50658706670804 M13.699297751460602 -18.50658706670804 C14.156371621236822 -18.338379657485856, 14.61344549101304 -18.170172248263672, 14.872394095147794 -18.074876768247425 M13.699297751460602 -18.50658706670804 C14.040472259883982 -18.38103169382565, 14.381646768307363 -18.255476320943263, 14.872394095147794 -18.074876768247425 M14.872394095147794 -18.074876768247425 C15.19341819031996 -17.932768924156143, 15.514442285492127 -17.79066108006486, 16.01542041279238 -17.568892924097174 M14.872394095147794 -18.074876768247425 C15.220891234925247 -17.920607422268294, 15.569388374702703 -17.766338076289166, 16.01542041279238 -17.568892924097174 M16.01542041279238 -17.568892924097174 C16.340409554104735 -17.39934629724, 16.66539869541709 -17.229799670382825, 17.123679764076783 -16.990714730406097 M16.01542041279238 -17.568892924097174 C16.338395398035047 -17.400397081171427, 16.661370383277717 -17.23190123824568, 17.123679764076783 -16.990714730406097 M17.123679764076783 -16.990714730406097 C17.42198443215966 -16.809880687581444, 17.72028910024254 -16.629046644756787, 18.192618073605697 -16.342718045390892 M17.123679764076783 -16.990714730406097 C17.54656021676844 -16.73436211486303, 17.9694406694601 -16.47800949931996, 18.192618073605697 -16.342718045390892 M18.192618073605697 -16.342718045390892 C18.5829514412123 -16.070438385407677, 18.973284808818903 -15.798158725424457, 19.217842844578712 -15.627565626425154 M18.192618073605697 -16.342718045390892 C18.587143340082108 -16.067514298220473, 18.981668606558518 -15.792310551050054, 19.217842844578712 -15.627565626425154 M19.217842844578712 -15.627565626425154 C19.48715351061395 -15.412797536919854, 19.756464176649192 -15.198029447414553, 20.19514120850187 -14.848196188198123 M19.217842844578712 -15.627565626425154 C19.519792909299383 -15.3867684850391, 19.82174297402005 -15.145971343653045, 20.19514120850187 -14.848196188198123 M20.19514120850187 -14.848196188198123 C20.544916822168133 -14.530539230422027, 20.894692435834397 -14.212882272645931, 21.120497236767985 -14.007812326905688 M20.19514120850187 -14.848196188198123 C20.482840723490988 -14.586915100797043, 20.770540238480102 -14.325634013395964, 21.120497236767985 -14.007812326905688 M21.120497236767985 -14.007812326905688 C21.350106086431715 -13.770722338390744, 21.579714936095446 -13.533632349875798, 21.990108442968648 -13.10986736009568 M21.120497236767985 -14.007812326905688 C21.421300314601822 -13.697208452650267, 21.722103392435663 -13.386604578394849, 21.990108442968648 -13.10986736009568 M21.990108442968648 -13.10986736009568 C22.252045971024295 -12.802180634973942, 22.51398349907994 -12.494493909852205, 22.800401408126582 -12.158051136245305 M21.990108442968648 -13.10986736009568 C22.28354819005595 -12.765176335972319, 22.57698793714325 -12.420485311848955, 22.800401408126582 -12.158051136245305 M22.800401408126582 -12.158051136245305 C23.03209284136171 -11.847605723234024, 23.263784274596837 -11.537160310222742, 23.548046464640635 -11.156274872382312 M22.800401408126582 -12.158051136245305 C22.952668877711663 -11.954026598853147, 23.104936347296743 -11.750002061460988, 23.548046464640635 -11.156274872382312 M23.548046464640635 -11.156274872382312 C23.801072814144266 -10.767558452456406, 24.054099163647894 -10.3788420325305, 24.229971378604247 -10.108655082055241 M23.548046464640635 -11.156274872382312 C23.753247001870673 -10.841031743137432, 23.95844753910071 -10.525788613892553, 24.229971378604247 -10.108655082055241 M24.229971378604247 -10.108655082055241 C24.41422433407721 -9.781495301978088, 24.598477289550175 -9.454335521900934, 24.8433739742735 -9.019496659696287 M24.229971378604247 -10.108655082055241 C24.405317929984154 -9.79730952431652, 24.580664481364064 -9.485963966577797, 24.8433739742735 -9.019496659696287 M24.8433739742735 -9.019496659696287 C25.055106099535912 -8.579830371247152, 25.266838224798327 -8.140164082798018, 25.38573364880834 -7.893275190886684 M24.8433739742735 -9.019496659696287 C25.0407175413429 -8.609708520200774, 25.238061108412296 -8.199920380705262, 25.38573364880834 -7.893275190886684 M25.38573364880834 -7.893275190886684 C25.507616790210104 -7.592221475174098, 25.629499931611868 -7.291167759461512, 25.854821729970325 -6.734618561215508 M25.38573364880834 -7.893275190886684 C25.522967892911637 -7.55430395470793, 25.660202137014934 -7.215332718529175, 25.854821729970325 -6.734618561215508 M25.854821729970325 -6.734618561215508 C25.98807455721465 -6.333282276510408, 26.121327384458972 -5.931945991805309, 26.24871063421488 -5.548287939305138 M25.854821729970325 -6.734618561215508 C25.94644413349023 -6.458666479861107, 26.03806653701013 -6.182714398506707, 26.24871063421488 -5.548287939305138 M26.24871063421488 -5.548287939305138 C26.319460602438838 -5.278487647236991, 26.3902105706628 -5.008687355168845, 26.56578178754556 -4.339158212148133 M26.24871063421488 -5.548287939305138 C26.359414582112013 -5.126125806578853, 26.470118530009145 -4.703963673852567, 26.56578178754556 -4.339158212148133 M26.56578178754556 -4.339158212148133 C26.628459572313037 -4.017321034321639, 26.691137357080514 -3.6954838564951444, 26.804732276581777 -3.1121979531509023 M26.56578178754556 -4.339158212148133 C26.652086321580647 -3.896002670347685, 26.738390855615737 -3.452847128547237, 26.804732276581777 -3.1121979531509023 M26.804732276581777 -3.1121979531509023 C26.851441524860036 -2.7499302472890803, 26.898150773138294 -2.3876625414272583, 26.964580202509367 -1.872449005199798 M26.804732276581777 -3.1121979531509023 C26.83687740588684 -2.862886678034623, 26.869022535191895 -2.6135754029183436, 26.964580202509367 -1.872449005199798 M26.964580202509367 -1.872449005199798 C26.99281306744615 -1.4326993446510148, 27.02104593238293 -0.9929496841022315, 27.044668715913414 -0.6250057626472757 M26.964580202509367 -1.872449005199798 C26.99097658075528 -1.4613041072466841, 27.01737295900119 -1.0501592092935703, 27.044668715913414 -0.6250057626472757 M27.044668715913414 -0.6250057626472757 C27.044668715913414 -0.2270915506760533, 27.044668715913414 0.1708226612951691, 27.044668715913414 0.625005762647271 M27.044668715913414 -0.6250057626472757 C27.044668715913414 -0.32539584192370014, 27.044668715913414 -0.025785921200124573, 27.044668715913414 0.625005762647271 M27.044668715913414 0.625005762647271 C27.019956645302553 1.009916209635778, 26.995244574691696 1.3948266566242853, 26.964580202509367 1.8724490051997846 M27.044668715913414 0.625005762647271 C27.024636372445766 0.9370256819724848, 27.00460402897812 1.2490456012976985, 26.964580202509367 1.8724490051997846 M26.964580202509367 1.8724490051997846 C26.926193007349884 2.1701725104476566, 26.8878058121904 2.467896015695529, 26.804732276581777 3.1121979531508885 M26.964580202509367 1.8724490051997846 C26.921214132018182 2.2087876843301997, 26.877848061526993 2.5451263634606143, 26.804732276581777 3.1121979531508885 M26.804732276581777 3.1121979531508885 C26.737986898913782 3.4549213608354914, 26.671241521245783 3.7976447685200947, 26.56578178754556 4.339158212148129 M26.804732276581777 3.1121979531508885 C26.74455379230969 3.4212017511609045, 26.684375308037602 3.730205549170921, 26.56578178754556 4.339158212148129 M26.56578178754556 4.339158212148129 C26.502130385844183 4.581888593527488, 26.438478984142805 4.824618974906847, 26.248710634214884 5.548287939305125 M26.56578178754556 4.339158212148129 C26.45277043637322 4.770119473597684, 26.339759085200882 5.201080735047239, 26.248710634214884 5.548287939305125 M26.248710634214884 5.548287939305125 C26.16253058923556 5.80784850385738, 26.076350544256236 6.067409068409635, 25.85482172997033 6.734618561215495 M26.248710634214884 5.548287939305125 C26.144468921388547 5.86224736967661, 26.040227208562214 6.176206800048094, 25.85482172997033 6.734618561215495 M25.85482172997033 6.734618561215495 C25.68293332570182 7.1591862429949265, 25.511044921433317 7.583753924774358, 25.385733648808344 7.893275190886679 M25.85482172997033 6.734618561215495 C25.717554149852756 7.073672137994024, 25.58028656973518 7.412725714772553, 25.385733648808344 7.893275190886679 M25.385733648808344 7.893275190886679 C25.194955998797663 8.289429063121643, 25.004178348786986 8.685582935356608, 24.843373974273504 9.019496659696284 M25.385733648808344 7.893275190886679 C25.181747162215643 8.316857494908037, 24.977760675622946 8.740439798929394, 24.843373974273504 9.019496659696284 M24.843373974273504 9.019496659696284 C24.6312084110728 9.39621810125206, 24.4190428478721 9.772939542807837, 24.22997137860425 10.108655082055236 M24.843373974273504 9.019496659696284 C24.607216585182318 9.438818017556425, 24.37105919609113 9.858139375416567, 24.22997137860425 10.108655082055236 M24.22997137860425 10.108655082055236 C24.081133036730037 10.337310743864963, 23.932294694855827 10.56596640567469, 23.54804646464064 11.156274872382301 M24.22997137860425 10.108655082055236 C23.986163554049693 10.483209372138814, 23.742355729495134 10.857763662222393, 23.54804646464064 11.156274872382301 M23.54804646464064 11.156274872382301 C23.377393888080455 11.384933778203399, 23.206741311520272 11.613592684024496, 22.800401408126582 12.158051136245302 M23.54804646464064 11.156274872382301 C23.284421425272782 11.509508408400078, 23.02079638590492 11.862741944417854, 22.800401408126582 12.158051136245302 M22.800401408126582 12.158051136245302 C22.578330154495436 12.418908666972746, 22.35625890086429 12.679766197700188, 21.99010844296866 13.10986736009567 M22.800401408126582 12.158051136245302 C22.58275565452587 12.413710222818915, 22.365109900925155 12.669369309392527, 21.99010844296866 13.10986736009567 M21.99010844296866 13.10986736009567 C21.686184719879204 13.423693556787251, 21.382260996789753 13.737519753478832, 21.12049723676799 14.007812326905684 M21.99010844296866 13.10986736009567 C21.657437922608725 13.453376985124969, 21.324767402248796 13.796886610154269, 21.12049723676799 14.007812326905684 M21.12049723676799 14.007812326905684 C20.914426106254744 14.19496067529448, 20.7083549757415 14.382109023683274, 20.195141208501887 14.848196188198111 M21.12049723676799 14.007812326905684 C20.856718564631283 14.247369137739023, 20.59293989249458 14.486925948572363, 20.195141208501887 14.848196188198111 M20.195141208501887 14.848196188198111 C19.94598216028216 15.046893898752613, 19.696823112062432 15.245591609307112, 19.217842844578715 15.627565626425152 M20.195141208501887 14.848196188198111 C19.954886313352166 15.039793073628745, 19.714631418202448 15.23138995905938, 19.217842844578715 15.627565626425152 M19.217842844578715 15.627565626425152 C19.012769662213536 15.770615800968118, 18.807696479848353 15.913665975511083, 18.192618073605708 16.34271804539089 M19.217842844578715 15.627565626425152 C18.920287188481954 15.835127571141506, 18.622731532385195 16.04268951585786, 18.192618073605708 16.34271804539089 M18.192618073605708 16.34271804539089 C17.903519189573252 16.517971487824983, 17.614420305540797 16.69322493025908, 17.123679764076787 16.990714730406093 M18.192618073605708 16.34271804539089 C17.870103040503736 16.538228553766015, 17.547588007401764 16.73373906214114, 17.123679764076787 16.990714730406093 M17.123679764076787 16.990714730406093 C16.85270093282649 17.132084213099148, 16.581722101576197 17.2734536957922, 16.015420412792388 17.56889292409717 M17.123679764076787 16.990714730406093 C16.767475916073167 17.17654604975013, 16.411272068069547 17.362377369094162, 16.015420412792388 17.56889292409717 M16.015420412792388 17.56889292409717 C15.620850393365995 17.74355736719347, 15.226280373939602 17.91822181028977, 14.872394095147804 18.07487676824742 M16.015420412792388 17.56889292409717 C15.633562830440415 17.73792994840167, 15.251705248088442 17.906966972706172, 14.872394095147804 18.07487676824742 M14.872394095147804 18.07487676824742 C14.54866304996794 18.19401278541059, 14.224932004788075 18.313148802573753, 13.699297751460616 18.506587066708033 M14.872394095147804 18.07487676824742 C14.602877978449408 18.174061190572104, 14.33336186175101 18.273245612896783, 13.699297751460616 18.506587066708033 M13.699297751460616 18.506587066708033 C13.388300434093635 18.59888943804432, 13.077303116726656 18.691191809380612, 12.500951886235413 18.86224982926107 M13.699297751460616 18.506587066708033 C13.441184215300192 18.583193809374848, 13.183070679139767 18.659800552041663, 12.500951886235413 18.86224982926107 M12.500951886235413 18.86224982926107 C12.070323609962823 18.960537923208168, 11.639695333690234 19.058826017155262, 11.282280759676766 19.140403561325773 M12.500951886235413 18.86224982926107 C12.203620336041629 18.930113815323107, 11.906288785847845 18.997977801385147, 11.282280759676766 19.140403561325773 M11.282280759676766 19.140403561325773 C10.799151597185052 19.21851213759482, 10.316022434693338 19.29662071386387, 10.048292152847878 19.3399052695533 M11.282280759676766 19.140403561325773 C10.964380716028767 19.19179917503112, 10.646480672380768 19.243194788736474, 10.048292152847878 19.3399052695533 M10.048292152847878 19.3399052695533 C9.716227895920632 19.371939109053372, 9.384163638993385 19.403972948553445, 8.8040567896239 19.45993515863156 M10.048292152847878 19.3399052695533 C9.56501620356309 19.386526319156438, 9.081740254278301 19.433147368759577, 8.8040567896239 19.45993515863156 M8.8040567896239 19.45993515863156 C8.532348794105664 19.4686483052003, 8.260640798587428 19.47736145176904, 7.5546875000000036 19.5 M8.8040567896239 19.45993515863156 C8.53184560349587 19.468664441543755, 8.259634417367842 19.477393724455947, 7.5546875000000036 19.5 M7.5546875000000036 19.5 C7.554687500000003 19.5, 7.554687500000001 19.5, 7.5546875 19.5 M7.5546875000000036 19.5 C7.554687500000003 19.5, 7.554687500000002 19.5, 7.5546875 19.5 M7.5546875 19.5 C4.067534894976312 19.5, 0.580382289952623 19.5, -7.5546874999999964 19.5 M7.5546875 19.5 C3.3541908873113835 19.5, -0.846305725377233 19.5, -7.5546874999999964 19.5 M-7.5546874999999964 19.5 C-7.897536320460783 19.489005505642567, -8.24038514092157 19.478011011285137, -8.804056789623893 19.45993515863156 M-7.5546874999999964 19.5 C-8.027777269776381 19.484828931896647, -8.500867039552768 19.46965786379329, -8.804056789623893 19.45993515863156 M-8.804056789623893 19.45993515863156 C-9.156331159413215 19.425951673849898, -9.508605529202535 19.391968189068237, -10.048292152847871 19.3399052695533 M-8.804056789623893 19.45993515863156 C-9.132246204595836 19.428275120474733, -9.460435619567779 19.39661508231791, -10.048292152847871 19.3399052695533 M-10.048292152847871 19.3399052695533 C-10.32474114351782 19.295211140635722, -10.60119013418777 19.25051701171815, -11.282280759676759 19.140403561325773 M-10.048292152847871 19.3399052695533 C-10.36275530451571 19.289065305889807, -10.677218456183551 19.23822534222631, -11.282280759676759 19.140403561325773 M-11.282280759676759 19.140403561325773 C-11.530275523348744 19.083800374834716, -11.77827028702073 19.027197188343656, -12.500951886235388 18.862249829261074 M-11.282280759676759 19.140403561325773 C-11.611933838425424 19.06516239728877, -11.941586917174087 18.989921233251764, -12.500951886235388 18.862249829261074 M-12.500951886235388 18.862249829261074 C-12.812928848481956 18.769656704466787, -13.124905810728524 18.6770635796725, -13.699297751460593 18.506587066708043 M-12.500951886235388 18.862249829261074 C-12.848740473415043 18.7590280021657, -13.196529060594699 18.655806175070328, -13.699297751460593 18.506587066708043 M-13.699297751460593 18.506587066708043 C-14.043343383390786 18.379975093834773, -14.387389015320979 18.253363120961506, -14.872394095147797 18.074876768247425 M-13.699297751460593 18.506587066708043 C-14.13020947989377 18.348007567340282, -14.561121208326947 18.18942806797252, -14.872394095147797 18.074876768247425 M-14.872394095147797 18.074876768247425 C-15.256481654069379 17.90485259946546, -15.64056921299096 17.7348284306835, -16.01542041279238 17.568892924097174 M-14.872394095147797 18.074876768247425 C-15.168854914478237 17.943642357727587, -15.465315733808676 17.81240794720775, -16.01542041279238 17.568892924097174 M-16.01542041279238 17.568892924097174 C-16.294834149990674 17.423122956373867, -16.574247887188964 17.277352988650556, -17.12367976407678 16.990714730406097 M-16.01542041279238 17.568892924097174 C-16.354876326147206 17.39179899153185, -16.694332239502028 17.21470505896653, -17.12367976407678 16.990714730406097 M-17.12367976407678 16.990714730406097 C-17.539723497340717 16.738506574357135, -17.955767230604653 16.486298418308177, -18.192618073605686 16.3427180453909 M-17.12367976407678 16.990714730406097 C-17.4960712553514 16.76496881998011, -17.868462746626015 16.539222909554123, -18.192618073605686 16.3427180453909 M-18.192618073605686 16.3427180453909 C-18.48859597249091 16.136256675805306, -18.784573871376132 15.929795306219717, -19.217842844578712 15.627565626425156 M-18.192618073605686 16.3427180453909 C-18.47363486116686 16.146692899408894, -18.754651648728036 15.950667753426886, -19.217842844578712 15.627565626425156 M-19.217842844578712 15.627565626425156 C-19.48610298710538 15.413635301462339, -19.754363129632043 15.19970497649952, -20.19514120850187 14.848196188198125 M-19.217842844578712 15.627565626425156 C-19.549329062497517 15.363214188853636, -19.880815280416318 15.098862751282116, -20.19514120850187 14.848196188198125 M-20.19514120850187 14.848196188198125 C-20.459182311880802 14.608401044254144, -20.723223415259735 14.368605900310165, -21.120497236767974 14.007812326905697 M-20.19514120850187 14.848196188198125 C-20.460695228728753 14.60702705320242, -20.72624924895564 14.365857918206718, -21.120497236767974 14.007812326905697 M-21.120497236767974 14.007812326905697 C-21.383842839518838 13.735886370989347, -21.647188442269705 13.463960415072997, -21.990108442968655 13.109867360095677 M-21.120497236767974 14.007812326905697 C-21.35814916151233 13.762417203021265, -21.59580108625668 13.517022079136833, -21.990108442968655 13.109867360095677 M-21.990108442968655 13.109867360095677 C-22.212258327712643 12.848917464788853, -22.43440821245663 12.587967569482027, -22.80040140812658 12.158051136245307 M-21.990108442968655 13.109867360095677 C-22.28003065637726 12.769308231184644, -22.56995286978587 12.42874910227361, -22.80040140812658 12.158051136245307 M-22.80040140812658 12.158051136245307 C-23.032042764340137 11.84767282188082, -23.263684120553695 11.537294507516336, -23.548046464640635 11.156274872382316 M-22.80040140812658 12.158051136245307 C-23.075002238860257 11.790111039712498, -23.349603069593936 11.42217094317969, -23.548046464640635 11.156274872382316 M-23.548046464640635 11.156274872382316 C-23.75767486906213 10.834229350082534, -23.967303273483626 10.512183827782751, -24.229971378604244 10.108655082055249 M-23.548046464640635 11.156274872382316 C-23.691683132145208 10.935610379249498, -23.83531979964978 10.714945886116682, -24.229971378604244 10.108655082055249 M-24.229971378604244 10.108655082055249 C-24.381596984001924 9.839428465914217, -24.533222589399603 9.570201849773186, -24.8433739742735 9.019496659696289 M-24.229971378604244 10.108655082055249 C-24.362046635850014 9.874142088745355, -24.49412189309578 9.639629095435463, -24.8433739742735 9.019496659696289 M-24.8433739742735 9.019496659696289 C-24.98120688339422 8.733283674755308, -25.119039792514936 8.447070689814328, -25.38573364880834 7.893275190886686 M-24.8433739742735 9.019496659696289 C-25.028117194874003 8.63587340924766, -25.21286041547451 8.25225015879903, -25.38573364880834 7.893275190886686 M-25.38573364880834 7.893275190886686 C-25.56132338215913 7.459565154713686, -25.73691311550992 7.025855118540686, -25.854821729970325 6.73461856121551 M-25.38573364880834 7.893275190886686 C-25.4872926318544 7.6424225392535545, -25.588851614900463 7.391569887620422, -25.854821729970325 6.73461856121551 M-25.854821729970325 6.73461856121551 C-25.96478014225624 6.40344134290413, -26.074738554542158 6.07226412459275, -26.24871063421488 5.5482879393051325 M-25.854821729970325 6.73461856121551 C-25.949977855933884 6.448023470883022, -26.045133981897447 6.161428380550536, -26.24871063421488 5.5482879393051325 M-26.24871063421488 5.5482879393051325 C-26.33020162439012 5.237527475348389, -26.41169261456536 4.926767011391646, -26.565781787545557 4.339158212148136 M-26.24871063421488 5.5482879393051325 C-26.375265369041387 5.065679886242635, -26.501820103867892 4.583071833180137, -26.565781787545557 4.339158212148136 M-26.565781787545557 4.339158212148136 C-26.6440497686546 3.937268671096877, -26.72231774976364 3.5353791300456185, -26.804732276581777 3.112197953150904 M-26.565781787545557 4.339158212148136 C-26.647277542358797 3.9206947353160344, -26.728773297172037 3.502231258483933, -26.804732276581777 3.112197953150904 M-26.804732276581777 3.112197953150904 C-26.843562516221713 2.8110382824016718, -26.88239275586165 2.5098786116524394, -26.964580202509364 1.872449005199809 M-26.804732276581777 3.112197953150904 C-26.852586961988564 2.741046463112375, -26.900441647395347 2.3698949730738454, -26.964580202509364 1.872449005199809 M-26.964580202509364 1.872449005199809 C-26.99184480538161 1.4477808078732468, -27.019109408253858 1.0231126105466846, -27.044668715913414 0.6250057626472781 M-26.964580202509364 1.872449005199809 C-26.984447361007213 1.5630019751141213, -27.004314519505062 1.2535549450284336, -27.044668715913414 0.6250057626472781 M-27.044668715913414 0.6250057626472781 C-27.044668715913414 0.14719409881701878, -27.044668715913414 -0.3306175650132406, -27.044668715913414 -0.6250057626472687 M-27.044668715913414 0.6250057626472781 C-27.044668715913414 0.27654681715362534, -27.044668715913414 -0.07191212834002747, -27.044668715913414 -0.6250057626472687 M-27.044668715913414 -0.6250057626472687 C-27.026654476544245 -0.9055920816544063, -27.008640237175072 -1.186178400661544, -26.964580202509367 -1.8724490051997822 M-27.044668715913414 -0.6250057626472687 C-27.0248669696724 -0.9334339440329491, -27.005065223431384 -1.2418621254186295, -26.964580202509367 -1.8724490051997822 M-26.964580202509367 -1.8724490051997822 C-26.923368005499302 -2.1920826669410394, -26.88215580848924 -2.5117163286822963, -26.804732276581777 -3.112197953150895 M-26.964580202509367 -1.8724490051997822 C-26.92978281727514 -2.142330653555515, -26.89498543204091 -2.4122123019112474, -26.804732276581777 -3.112197953150895 M-26.804732276581777 -3.112197953150895 C-26.7141324191518 -3.577409072767189, -26.62353256172182 -4.042620192383483, -26.56578178754556 -4.339158212148126 M-26.804732276581777 -3.112197953150895 C-26.742964591892655 -3.4293619594247637, -26.681196907203528 -3.7465259656986323, -26.56578178754556 -4.339158212148126 M-26.56578178754556 -4.339158212148126 C-26.44963961237294 -4.78205866241845, -26.333497437200325 -5.224959112688774, -26.248710634214884 -5.548287939305123 M-26.56578178754556 -4.339158212148126 C-26.48230514413558 -4.657490832476498, -26.398828500725596 -4.975823452804868, -26.248710634214884 -5.548287939305123 M-26.248710634214884 -5.548287939305123 C-26.102684720261642 -5.9880947260624975, -25.956658806308397 -6.427901512819872, -25.854821729970332 -6.734618561215485 M-26.248710634214884 -5.548287939305123 C-26.105089631315302 -5.980851517139408, -25.961468628415723 -6.413415094973693, -25.854821729970332 -6.734618561215485 M-25.854821729970332 -6.734618561215485 C-25.716996738930963 -7.075048953747656, -25.579171747891593 -7.415479346279826, -25.385733648808344 -7.893275190886676 M-25.854821729970332 -6.734618561215485 C-25.680767170505597 -7.164536688209364, -25.50671261104086 -7.594454815203243, -25.385733648808344 -7.893275190886676 M-25.385733648808344 -7.893275190886676 C-25.260475058060795 -8.153377334678458, -25.135216467313246 -8.413479478470242, -24.843373974273504 -9.019496659696282 M-25.385733648808344 -7.893275190886676 C-25.189169164641218 -8.301445548065919, -24.99260468047409 -8.70961590524516, -24.843373974273504 -9.019496659696282 M-24.843373974273504 -9.019496659696282 C-24.598354276332692 -9.454553944325015, -24.35333457839188 -9.88961122895375, -24.229971378604247 -10.108655082055243 M-24.843373974273504 -9.019496659696282 C-24.614297027658406 -9.426245974967584, -24.385220081043308 -9.832995290238884, -24.229971378604247 -10.108655082055243 M-24.229971378604247 -10.108655082055243 C-24.050488879306535 -10.38438839877592, -23.871006380008822 -10.660121715496595, -23.54804646464064 -11.156274872382308 M-24.229971378604247 -10.108655082055243 C-23.965250426791023 -10.51533755156911, -23.700529474977802 -10.922020021082975, -23.54804646464064 -11.156274872382308 M-23.54804646464064 -11.156274872382308 C-23.380103822104644 -11.38130271349106, -23.21216117956865 -11.606330554599811, -22.800401408126586 -12.158051136245302 M-23.54804646464064 -11.156274872382308 C-23.271931765418813 -11.52624341477298, -22.995817066196988 -11.89621195716365, -22.800401408126586 -12.158051136245302 M-22.800401408126586 -12.158051136245302 C-22.510404711341366 -12.498697757568728, -22.22040801455615 -12.839344378892154, -21.990108442968662 -13.10986736009567 M-22.800401408126586 -12.158051136245302 C-22.529961600302777 -12.47572512297615, -22.259521792478967 -12.793399109706998, -21.990108442968662 -13.10986736009567 M-21.990108442968662 -13.10986736009567 C-21.778273031731946 -13.328604814208289, -21.566437620495233 -13.547342268320905, -21.120497236767996 -14.007812326905677 M-21.990108442968662 -13.10986736009567 C-21.72230501533206 -13.386396386200774, -21.454501587695457 -13.662925412305878, -21.120497236767996 -14.007812326905677 M-21.120497236767996 -14.007812326905677 C-20.807720180788344 -14.291868173518985, -20.494943124808692 -14.575924020132295, -20.195141208501887 -14.848196188198107 M-21.120497236767996 -14.007812326905677 C-20.889447053374727 -14.217645990210585, -20.658396869981463 -14.427479653515494, -20.195141208501887 -14.848196188198107 M-20.195141208501887 -14.848196188198107 C-19.98204257520538 -15.018136677459282, -19.768943941908873 -15.188077166720456, -19.21784284457872 -15.627565626425149 M-20.195141208501887 -14.848196188198107 C-19.95456461535549 -15.04004961922035, -19.713988022209094 -15.23190305024259, -19.21784284457872 -15.627565626425149 M-19.21784284457872 -15.627565626425149 C-19.012451257758865 -15.770837906132188, -18.80705967093901 -15.914110185839226, -18.19261807360571 -16.342718045390885 M-19.21784284457872 -15.627565626425149 C-18.856894933431334 -15.879347264058325, -18.49594702228395 -16.1311289016915, -18.19261807360571 -16.342718045390885 M-18.19261807360571 -16.342718045390885 C-17.933999414223365 -16.499494196520402, -17.67538075484102 -16.65627034764992, -17.12367976407679 -16.99071473040609 M-18.19261807360571 -16.342718045390885 C-17.939928554984487 -16.49589991654751, -17.687239036363263 -16.649081787704137, -17.12367976407679 -16.99071473040609 M-17.12367976407679 -16.99071473040609 C-16.750540760485375 -17.18538110957279, -16.37740175689396 -17.380047488739496, -16.015420412792388 -17.56889292409717 M-17.12367976407679 -16.99071473040609 C-16.69471983196845 -17.214502852225063, -16.26575989986011 -17.438290974044033, -16.015420412792388 -17.56889292409717 M-16.015420412792388 -17.56889292409717 C-15.56361676154872 -17.76889299822361, -15.111813110305055 -17.968893072350053, -14.872394095147806 -18.07487676824742 M-16.015420412792388 -17.56889292409717 C-15.669991912100727 -17.721803874580964, -15.324563411409066 -17.874714825064757, -14.872394095147806 -18.07487676824742 M-14.872394095147806 -18.07487676824742 C-14.588856260105034 -18.179221312538175, -14.305318425062262 -18.283565856828933, -13.699297751460618 -18.506587066708033 M-14.872394095147806 -18.07487676824742 C-14.496152912940037 -18.213337001235242, -14.119911730732268 -18.351797234223064, -13.699297751460618 -18.506587066708033 M-13.699297751460618 -18.506587066708033 C-13.290126683707022 -18.628026891834537, -12.880955615953425 -18.74946671696104, -12.500951886235413 -18.862249829261067 M-13.699297751460618 -18.506587066708033 C-13.441734512478735 -18.583030484060824, -13.184171273496853 -18.65947390141362, -12.500951886235413 -18.862249829261067 M-12.500951886235413 -18.862249829261067 C-12.202092380818334 -18.930462561131982, -11.903232875401255 -18.9986752930029, -11.282280759676768 -19.140403561325773 M-12.500951886235413 -18.862249829261067 C-12.061884633107134 -18.962464064606007, -11.622817379978857 -19.062678299950946, -11.282280759676768 -19.140403561325773 M-11.282280759676768 -19.140403561325773 C-10.947495106833241 -19.194529109376, -10.612709453989716 -19.24865465742623, -10.04829215284788 -19.3399052695533 M-11.282280759676768 -19.140403561325773 C-10.959300092244721 -19.1926205708837, -10.636319424812676 -19.24483758044163, -10.04829215284788 -19.3399052695533 M-10.04829215284788 -19.3399052695533 C-9.708878801402667 -19.37264806736294, -9.369465449957456 -19.405390865172585, -8.804056789623903 -19.45993515863156 M-10.04829215284788 -19.3399052695533 C-9.700025397207694 -19.373502144617852, -9.35175864156751 -19.40709901968241, -8.804056789623903 -19.45993515863156 M-8.804056789623903 -19.45993515863156 C-8.311580588468972 -19.475727911855824, -7.819104387314042 -19.49152066508009, -7.554687500000006 -19.5 M-8.804056789623903 -19.45993515863156 C-8.408811721346355 -19.472609898673365, -8.013566653068807 -19.48528463871517, -7.554687500000006 -19.5 M-7.554687500000006 -19.5 C-7.5546875000000036 -19.5, -7.554687500000001 -19.5, -7.5546875 -19.5 M-7.554687500000006 -19.5 C-7.554687500000005 -19.5, -7.5546875000000036 -19.5, -7.5546875 -19.5" stroke="#f97316" stroke-width="2" fill="none" stroke-dasharray="0 0" style="stroke:#f97316 !important;stroke-width:2px !important"/></g><g class="label" style="" transform="translate(-14.6796875, -12)"><rect/><foreignObject width="29.359375" height="24"><div xmlns="http://www.w3.org/1999/xhtml" style="display: table-cell; white-space: nowrap; line-height: 1.5; max-width: 200px; text-align: center;"><span class="nodeLabel"><p>ship</p></span></div></foreignObject></g></g><g class="node default ambient" id="my-svg-flowchart-tu-19" data-look="classic" transform="translate(349.6317090988159, 499)"><rect class="basic label-container" style="stroke:#a855f7 !important;stroke-width:2px !important" x="-36.671875" y="-27" width="73.34375" height="54"/><g class="label" style="" transform="translate(-6.671875, -12)"><rect/><foreignObject width="13.34375" height="24"><div xmlns="http://www.w3.org/1999/xhtml" style="display: table-cell; white-space: nowrap; line-height: 1.5; max-width: 200px; text-align: center;"><span class="nodeLabel"><p>tu</p></span></div></foreignObject></g></g></g></g></g><defs><filter id="my-svg-drop-shadow" height="130%" width="130%"><feDropShadow dx="4" dy="4" stdDeviation="0" flood-opacity="0.06" flood-color="#FFFFFF"/></filter></defs><defs><filter id="my-svg-drop-shadow-small" height="150%" width="150%"><feDropShadow dx="2" dy="2" stdDeviation="0" flood-opacity="0.06" flood-color="#FFFFFF"/></filter></defs><linearGradient id="my-svg-gradient" gradientUnits="objectBoundingBox" x1="0%" y1="0%" x2="100%" y2="0%"><stop offset="0%" stop-color="#cccccc" stop-opacity="1"/><stop offset="100%" stop-color="hsl(180, 0%, 18.3529411765%)" stop-opacity="1"/></linearGradient></svg>