<svg id="my-svg" width="100%" xmlns="http://www.w3.org/2000/svg" xmlns:xlink="http://www.w3.org/1999/xlink" class="flowchart" style="max-width: 585.547px; background-color: transparent;" viewBox="0 0 585.546875 534" role="graphics-document document" aria-roledescription="flowchart-v2"><style>#my-svg{font-family:"trebuchet ms",verdana,arial,sans-serif;font-size:16px;fill:#ccc;}@keyframes edge-animation-frame{from{stroke-dashoffset:0;}}@keyframes dash{to{stroke-dashoffset:0;}}#my-svg .edge-animation-slow{stroke-dasharray:9,5!important;stroke-dashoffset:900;animation:dash 50s linear infinite;stroke-linecap:round;}#my-svg .edge-animation-fast{stroke-dasharray:9,5!important;stroke-dashoffset:900;animation:dash 20s linear infinite;stroke-linecap:round;}#my-svg .error-icon{fill:#a44141;}#my-svg .error-text{fill:#ddd;stroke:#ddd;}#my-svg .edge-thickness-normal{stroke-width:1px;}#my-svg .edge-thickness-thick{stroke-width:3.5px;}#my-svg .edge-pattern-solid{stroke-dasharray:0;}#my-svg .edge-thickness-invisible{stroke-width:0;fill:none;}#my-svg .edge-pattern-dashed{stroke-dasharray:3;}#my-svg .edge-pattern-dotted{stroke-dasharray:2;}#my-svg .marker{fill:lightgrey;stroke:lightgrey;}#my-svg .marker.cross{stroke:lightgrey;}#my-svg svg{font-family:"trebuchet ms",verdana,arial,sans-serif;font-size:16px;}#my-svg p{margin:0;}#my-svg .label{font-family:"trebuchet ms",verdana,arial,sans-serif;color:#ccc;}#my-svg .cluster-label text{fill:#F9FFFE;}#my-svg .cluster-label span{color:#F9FFFE;}#my-svg .cluster-label span p{background-color:transparent;}#my-svg .label text,#my-svg span{fill:#ccc;color:#ccc;}#my-svg .node rect,#my-svg .node circle,#my-svg .node ellipse,#my-svg .node polygon,#my-svg .node path{fill:#1f2020;stroke:#ccc;stroke-width:1px;}#my-svg .rough-node .label text,#my-svg .node .label text,#my-svg .image-shape .label,#my-svg .icon-shape .label{text-anchor:middle;}#my-svg .node .katex path{fill:#000;stroke:#000;stroke-width:1px;}#my-svg .rough-node .label,#my-svg .node .label,#my-svg .image-shape .label,#my-svg .icon-shape .label{text-align:center;}#my-svg .node.clickable{cursor:pointer;}#my-svg .root .anchor path{fill:lightgrey!important;stroke-width:0;stroke:lightgrey;}#my-svg .arrowheadPath{fill:lightgrey;}#my-svg .edgePath .path{stroke:lightgrey;stroke-width:1px;}#my-svg .flowchart-link{stroke:lightgrey;fill:none;}#my-svg .edgeLabel{background-color:hsl(0, 0%, 34.4117647059%);text-align:center;}#my-svg .edgeLabel p{background-color:hsl(0, 0%, 34.4117647059%);}#my-svg .edgeLabel rect{opacity:0.5;background-color:hsl(0, 0%, 34.4117647059%);fill:hsl(0, 0%, 34.4117647059%);}#my-svg .labelBkg{background-color:rgba(87.75, 87.75, 87.75, 0.5);}#my-svg .cluster rect{fill:hsl(180, 1.5873015873%, 28.3529411765%);stroke:rgba(255, 255, 255, 0.25);stroke-width:1px;}#my-svg .cluster text{fill:#F9FFFE;}#my-svg .cluster span{color:#F9FFFE;}#my-svg div.mermaidTooltip{position:absolute;text-align:center;max-width:200px;padding:2px;font-family:"trebuchet ms",verdana,arial,sans-serif;font-size:12px;background:hsl(20, 1.5873015873%, 12.3529411765%);border:1px solid rgba(255, 255, 255, 0.25);border-radius:2px;pointer-events:none;z-index:100;}#my-svg .flowchartTitleText{text-anchor:middle;font-size:18px;fill:#ccc;}#my-svg rect.text{fill:none;stroke-width:0;}#my-svg .icon-shape,#my-svg .image-shape{background-color:hsl(0, 0%, 34.4117647059%);text-align:center;}#my-svg .icon-shape p,#my-svg .image-shape p{background-color:hsl(0, 0%, 34.4117647059%);padding:2px;}#my-svg .icon-shape .label rect,#my-svg .image-shape .label rect{opacity:0.5;background-color:hsl(0, 0%, 34.4117647059%);fill:hsl(0, 0%, 34.4117647059%);}#my-svg .label-icon{display:inline-block;height:1em;overflow:visible;vertical-align:-0.125em;}#my-svg .node .label-icon path{fill:currentColor;stroke:revert;stroke-width:revert;}#my-svg .node .neo-node{stroke:#ccc;}#my-svg [data-look="neo"].node rect,#my-svg [data-look="neo"].cluster rect,#my-svg [data-look="neo"].node polygon{stroke:url(#my-svg-gradient);filter:drop-shadow( 1px 2px 2px rgba(185,185,185,1));}#my-svg [data-look="neo"].node path{stroke:url(#my-svg-gradient);stroke-width:1px;}#my-svg [data-look="neo"].node .outer-path{filter:drop-shadow( 1px 2px 2px rgba(185,185,185,1));}#my-svg [data-look="neo"].node .neo-line path{stroke:#ccc;filter:none;}#my-svg [data-look="neo"].node circle{stroke:url(#my-svg-gradient);filter:drop-shadow( 1px 2px 2px rgba(185,185,185,1));}#my-svg [data-look="neo"].node circle .state-start{fill:#000000;}#my-svg [data-look="neo"].icon-shape .icon{fill:url(#my-svg-gradient);filter:drop-shadow( 1px 2px 2px rgba(185,185,185,1));}#my-svg [data-look="neo"].icon-shape .icon-neo path{stroke:url(#my-svg-gradient);filter:drop-shadow( 1px 2px 2px rgba(185,185,185,1));}#my-svg :root{--mermaid-font-family:"trebuchet ms",verdana,arial,sans-serif;}#my-svg .tool&gt;*{stroke:rgb(59, 130, 246)!important;stroke-width:2px!important;}#my-svg .tool span{stroke:rgb(59, 130, 246)!important;stroke-width:2px!important;}#my-svg .agent&gt;*{stroke:rgb(16, 185, 129)!important;stroke-width:2px!important;}#my-svg .agent span{stroke:rgb(16, 185, 129)!important;stroke-width:2px!important;}#my-svg .ship&gt;*{stroke:rgb(249, 115, 22)!important;stroke-width:2px!important;}#my-svg .ship span{stroke:rgb(249, 115, 22)!important;stroke-width:2px!important;}#my-svg .ambient&gt;*{stroke:rgb(168, 85, 247)!important;stroke-width:2px!important;}#my-svg .ambient span{stroke:rgb(168, 85, 247)!important;stroke-width:2px!important;}</style><g><marker id="my-svg_flowchart-v2-pointEnd" class="marker flowchart-v2" viewBox="0 0 10 10" refX="5" refY="5" markerUnits="userSpaceOnUse" markerWidth="8" markerHeight="8" orient="auto"><path d="M 0 0 L 10 5 L 0 10 z" class="arrowMarkerPath" style="stroke-width: 1; stroke-dasharray: 1, 0;"/></marker><marker id="my-svg_flowchart-v2-pointStart" class="marker flowchart-v2" viewBox="0 0 10 10" refX="4.5" refY="5" markerUnits="userSpaceOnUse" markerWidth="8" markerHeight="8" orient="auto"><path d="M 0 5 L 10 10 L 10 0 z" class="arrowMarkerPath" style="stroke-width: 1; stroke-dasharray: 1, 0;"/></marker><marker id="my-svg_flowchart-v2-pointEnd-margin" class="marker flowchart-v2" viewBox="0 0 11.5 14" refX="11.5" refY="7" markerUnits="userSpaceOnUse" markerWidth="10.5" markerHeight="14" orient="auto"><path d="M 0 0 L 11.5 7 L 0 14 z" class="arrowMarkerPath" style="stroke-width: 0; stroke-dasharray: 1, 0;"/></marker><marker id="my-svg_flowchart-v2-pointStart-margin" class="marker flowchart-v2" viewBox="0 0 11.5 14" refX="1" refY="7" markerUnits="userSpaceOnUse" markerWidth="11.5" markerHeight="14" orient="auto"><polygon points="0,7 11.5,14 11.5,0" class="arrowMarkerPath" style="stroke-width: 0; stroke-dasharray: 1, 0;"/></marker><marker id="my-svg_flowchart-v2-circleEnd" class="marker flowchart-v2" viewBox="0 0 10 10" refX="11" refY="5" markerUnits="userSpaceOnUse" markerWidth="11" markerHeight="11" orient="auto"><circle cx="5" cy="5" r="5" class="arrowMarkerPath" style="stroke-width: 1; stroke-dasharray: 1, 0;"/></marker><marker id="my-svg_flowchart-v2-circleStart" class="marker flowchart-v2" viewBox="0 0 10 10" refX="-1" refY="5" markerUnits="userSpaceOnUse" markerWidth="11" markerHeight="11" orient="auto"><circle cx="5" cy="5" r="5" class="arrowMarkerPath" style="stroke-width: 1; stroke-dasharray: 1, 0;"/></marker><marker id="my-svg_flowchart-v2-circleEnd-margin" class="marker flowchart-v2" viewBox="0 0 10 10" refY="5" refX="12.25" markerUnits="userSpaceOnUse" markerWidth="14" markerHeight="14" orient="auto"><circle cx="5" cy="5" r="5" class="arrowMarkerPath" style="stroke-width: 0; stroke-dasharray: 1, 0;"/></marker><marker id="my-svg_flowchart-v2-circleStart-margin" class="marker flowchart-v2" viewBox="0 0 10 10" refX="-2" refY="5" markerUnits="userSpaceOnUse" markerWidth="14" markerHeight="14" orient="auto"><circle cx="5" cy="5" r="5" class="arrowMarkerPath" style="stroke-width: 0; stroke-dasharray: 1, 0;"/></marker><marker id="my-svg_flowchart-v2-crossEnd" class="marker cross flowchart-v2" viewBox="0 0 11 11" refX="12" refY="5.2" markerUnits="userSpaceOnUse" markerWidth="11" markerHeight="11" orient="auto"><path d="M 1,1 l 9,9 M 10,1 l -9,9" class="arrowMarkerPath" style="stroke-width: 2; stroke-dasharray: 1, 0;"/></marker><marker id="my-svg_flowchart-v2-crossStart" class="marker cross flowchart-v2" viewBox="0 0 11 11" refX="-1" refY="5.2" markerUnits="userSpaceOnUse" markerWidth="11" markerHeight="11" orient="auto"><path d="M 1,1 l 9,9 M 10,1 l -9,9" class="arrowMarkerPath" style="stroke-width: 2; stroke-dasharray: 1, 0;"/></marker><marker id="my-svg_flowchart-v2-crossEnd-margin" class="marker cross flowchart-v2" viewBox="0 0 15 15" refX="17.7" refY="7.5" markerUnits="userSpaceOnUse" markerWidth="12" markerHeight="12" orient="auto"><path d="M 1,1 L 14,14 M 1,14 L 14,1" class="arrowMarkerPath" style="stroke-width: 2.5;"/></marker><marker id="my-svg_flowchart-v2-crossStart-margin" class="marker cross flowchart-v2" viewBox="0 0 15 15" refX="-3.5" refY="7.5" markerUnits="userSpaceOnUse" markerWidth="12" markerHeight="12" orient="auto"><path d="M 1,1 L 14,14 M 1,14 L 14,1" class="arrowMarkerPath" style="stroke-width: 2.5; stroke-dasharray: 1, 0;"/></marker><g class="root"><g class="clusters"/><g class="edgePaths"><path d="M223.535,62L223.535,68.167C223.535,74.333,223.535,86.667,229.717,98.547C235.899,110.428,248.263,121.857,254.444,127.571L260.626,133.285" id="my-svg-L_hop_fab_0" class="edge-thickness-normal edge-pattern-dotted edge-thickness-normal edge-pattern-solid flowchart-link" style=";" data-edge="true" data-et="edge" data-id="L_hop_fab_0" data-points="W3sieCI6MjIzLjUzNTE1NjI1LCJ5Ijo2Mn0seyJ4IjoyMjMuNTM1MTU2MjUsInkiOjk5fSx7IngiOjI2My41NjM1Mzc1OTc2NTYyNSwieSI6MTM2fV0=" data-look="classic" marker-end="url(#my-svg_flowchart-v2-pointEnd)"/><path d="M362.012,62L362.012,68.167C362.012,74.333,362.012,86.667,355.83,98.547C349.648,110.428,337.284,121.857,331.103,127.571L324.921,133.285" id="my-svg-L_idea_fab_0" class="edge-thickness-normal edge-pattern-solid edge-thickness-normal edge-pattern-solid flowchart-link" style=";" data-edge="true" data-et="edge" data-id="L_idea_fab_0" data-points="W3sieCI6MzYyLjAxMTcxODc1LCJ5Ijo2Mn0seyJ4IjozNjIuMDExNzE4NzUsInkiOjk5fSx7IngiOjMyMS45ODMzMzc0MDIzNDM3NSwieSI6MTM2fV0=" data-look="classic" marker-end="url(#my-svg_flowchart-v2-pointEnd)"/><path d="M238.766,176.599L213.348,182.999C187.93,189.399,137.094,202.2,111.676,212.1C86.258,222,86.258,229,86.258,232.5L86.258,236" id="my-svg-L_fab_w1_0" class="edge-thickness-normal edge-pattern-solid edge-thickness-normal edge-pattern-solid flowchart-link" style=";" data-edge="true" data-et="edge" data-id="L_fab_w1_0" data-points="W3sieCI6MjM4Ljc2NTYyNSwieSI6MTc2LjU5OTAwMTI4NjIyMjN9LHsieCI6ODYuMjU3ODEyNSwieSI6MjE1fSx7IngiOjg2LjI1NzgxMjUsInkiOjI0MH1d" data-look="classic" marker-end="url(#my-svg_flowchart-v2-pointEnd)"/><path d="M292.773,190L292.773,194.167C292.773,198.333,292.773,206.667,292.773,214.333C292.773,222,292.773,229,292.773,232.5L292.773,236" id="my-svg-L_fab_w2_0" class="edge-thickness-normal edge-pattern-solid edge-thickness-normal edge-pattern-solid flowchart-link" style=";" data-edge="true" data-et="edge" data-id="L_fab_w2_0" data-points="W3sieCI6MjkyLjc3MzQzNzUsInkiOjE5MH0seyJ4IjoyOTIuNzczNDM3NSwieSI6MjE1fSx7IngiOjI5Mi43NzM0Mzc1LCJ5IjoyNDB9XQ==" data-look="classic" marker-end="url(#my-svg_flowchart-v2-pointEnd)"/><path d="M346.781,176.599L372.199,182.999C397.617,189.399,448.453,202.2,473.871,212.1C499.289,222,499.289,229,499.289,232.5L499.289,236" id="my-svg-L_fab_w3_0" class="edge-thickness-normal edge-pattern-solid edge-thickness-normal edge-pattern-solid flowchart-link" style=";" data-edge="true" data-et="edge" data-id="L_fab_w3_0" data-points="W3sieCI6MzQ2Ljc4MTI1LCJ5IjoxNzYuNTk5MDAxMjg2MjIyM30seyJ4Ijo0OTkuMjg5MDYyNSwieSI6MjE1fSx7IngiOjQ5OS4yODkwNjI1LCJ5IjoyNDB9XQ==" data-look="classic" marker-end="url(#my-svg_flowchart-v2-pointEnd)"/><path d="M86.258,294L86.258,298.167C86.258,302.333,86.258,310.667,110.955,321.052C135.652,331.437,185.047,343.875,209.744,350.093L234.441,356.312" id="my-svg-L_w1_rk_0" class="edge-thickness-normal edge-pattern-solid edge-thickness-normal edge-pattern-solid flowchart-link" style=";" data-edge="true" data-et="edge" data-id="L_w1_rk_0" data-points="W3sieCI6ODYuMjU3ODEyNSwieSI6Mjk0fSx7IngiOjg2LjI1NzgxMjUsInkiOjMxOX0seyJ4IjoyMzguMzIwMzEyNSwieSI6MzU3LjI4ODg3MDM5NDE4OTN9XQ==" data-look="classic" marker-end="url(#my-svg_flowchart-v2-pointEnd)"/><path d="M292.773,294L292.773,298.167C292.773,302.333,292.773,310.667,292.773,318.333C292.773,326,292.773,333,292.773,336.5L292.773,340" id="my-svg-L_w2_rk_0" class="edge-thickness-normal edge-pattern-solid edge-thickness-normal edge-pattern-solid flowchart-link" style=";" data-edge="true" data-et="edge" data-id="L_w2_rk_0" data-points="W3sieCI6MjkyLjc3MzQzNzUsInkiOjI5NH0seyJ4IjoyOTIuNzczNDM3NSwieSI6MzE5fSx7IngiOjI5Mi43NzM0Mzc1LCJ5IjozNDR9XQ==" data-look="classic" marker-end="url(#my-svg_flowchart-v2-pointEnd)"/><path d="M499.289,294L499.289,298.167C499.289,302.333,499.289,310.667,474.592,321.052C449.895,331.437,400.5,343.875,375.803,350.093L351.105,356.312" id="my-svg-L_w3_rk_0" class="edge-thickness-normal edge-pattern-solid edge-thickness-normal edge-pattern-solid flowchart-link" style=";" data-edge="true" data-et="edge" data-id="L_w3_rk_0" data-points="W3sieCI6NDk5LjI4OTA2MjUsInkiOjI5NH0seyJ4Ijo0OTkuMjg5MDYyNSwieSI6MzE5fSx7IngiOjM0Ny4yMjY1NjI1LCJ5IjozNTcuMjg4ODcwMzk0MTg5M31d" data-look="classic" marker-end="url(#my-svg_flowchart-v2-pointEnd)"/><path d="M268.317,398L262.731,404.167C257.145,410.333,245.973,422.667,240.464,435.667C234.954,448.667,235.106,462.333,235.182,469.167L235.257,476" id="my-svg-L_rk_ship_0" class="edge-thickness-normal edge-pattern-solid edge-thickness-normal edge-pattern-solid flowchart-link" style=";" data-edge="true" data-et="edge" data-id="L_rk_ship_0" data-points="W3sieCI6MjY4LjMxNjY4ODY0MTkwNTgsInkiOjM5OH0seyJ4IjoyMzQuODAxODg0NjUxMTg0MDgsInkiOjQzNX0seyJ4IjoyMzUuMzAxODg0NjUxMTg0MDgsInkiOjQ4MH1d" data-look="classic" marker-end="url(#my-svg_flowchart-v2-pointEnd)"/><path d="M317.23,398L322.816,404.167C328.402,410.333,339.573,422.667,345.159,434.333C350.745,446,350.745,457,350.745,462.5L350.745,468" id="my-svg-L_rk_tu_0" class="edge-thickness-normal edge-pattern-dotted edge-thickness-normal edge-pattern-solid flowchart-link" style=";" data-edge="true" data-et="edge" data-id="L_rk_tu_0" data-points="W3sieCI6MzE3LjIzMDE4NjM1ODA5NDIsInkiOjM5OH0seyJ4IjozNTAuNzQ0OTkwMzQ4ODE1OSwieSI6NDM1fSx7IngiOjM1MC43NDQ5OTAzNDg4MTU5LCJ5Ijo0NzJ9XQ==" data-look="classic" marker-end="url(#my-svg_flowchart-v2-pointEnd)"/></g><g class="edgeLabels"><g class="edgeLabel" transform="translate(223.53515625, 99)"><g class="label" data-id="L_hop_fab_0" transform="translate(-30.25, -12)"><foreignObject width="60.5" height="24"><div xmlns="http://www.w3.org/1999/xhtml" class="labelBkg" style="display: table-cell; white-space: nowrap; line-height: 1.5; max-width: 200px; text-align: center;"><span class="edgeLabel"><p>navigate</p></span></div></foreignObject></g></g><g class="edgeLabel"><g class="label" data-id="L_idea_fab_0" transform="translate(0, 0)"><foreignObject width="0" height="0"><div xmlns="http://www.w3.org/1999/xhtml" class="labelBkg" style="display: table-cell; white-space: nowrap; line-height: 1.5; max-width: 200px; text-align: center;"><span class="edgeLabel"></span></div></foreignObject></g></g><g class="edgeLabel"><g class="label" data-id="L_fab_w1_0" transform="translate(0, 0)"><foreignObject width="0" height="0"><div xmlns="http://www.w3.org/1999/xhtml" class="labelBkg" style="display: table-cell; white-space: nowrap; line-height: 1.5; max-width: 200px; text-align: center;"><span class="edgeLabel"></span></div></foreignObject></g></g><g class="edgeLabel"><g class="label" data-id="L_fab_w2_0" transform="translate(0, 0)"><foreignObject width="0" height="0"><div xmlns="http://www.w3.org/1999/xhtml" class="labelBkg" style="display: table-cell; white-space: nowrap; line-height: 1.5; max-width: 200px; text-align: center;"><span class="edgeLabel"></span></div></foreignObject></g></g><g class="edgeLabel"><g class="label" data-id="L_fab_w3_0" transform="translate(0, 0)"><foreignObject width="0" height="0"><div xmlns="http://www.w3.org/1999/xhtml" class="labelBkg" style="display: table-cell; white-space: nowrap; line-height: 1.5; max-width: 200px; text-align: center;"><span class="edgeLabel"></span></div></foreignObject></g></g><g class="edgeLabel"><g class="label" data-id="L_w1_rk_0" transform="translate(0, 0)"><foreignObject width="0" height="0"><div xmlns="http://www.w3.org/1999/xhtml" class="labelBkg" style="display: table-cell; white-space: nowrap; line-height: 1.5; max-width: 200px; text-align: center;"><span class="edgeLabel"></span></div></foreignObject></g></g><g class="edgeLabel"><g class="label" data-id="L_w2_rk_0" transform="translate(0, 0)"><foreignObject width="0" height="0"><div xmlns="http://www.w3.org/1999/xhtml" class="labelBkg" style="display: table-cell; white-space: nowrap; line-height: 1.5; max-width: 200px; text-align: center;"><span class="edgeLabel"></span></div></foreignObject></g></g><g class="edgeLabel"><g class="label" data-id="L_w3_rk_0" transform="translate(0, 0)"><foreignObject width="0" height="0"><div xmlns="http://www.w3.org/1999/xhtml" class="labelBkg" style="display: table-cell; white-space: nowrap; line-height: 1.5; max-width: 200px; text-align: center;"><span class="edgeLabel"></span></div></foreignObject></g></g><g class="edgeLabel"><g class="label" data-id="L_rk_ship_0" transform="translate(0, 0)"><foreignObject width="0" height="0"><div xmlns="http://www.w3.org/1999/xhtml" class="labelBkg" style="display: table-cell; white-space: nowrap; line-height: 1.5; max-width: 200px; text-align: center;"><span class="edgeLabel"></span></div></foreignObject></g></g><g class="edgeLabel" transform="translate(350.7449903488159, 435)"><g class="label" data-id="L_rk_tu_0" transform="translate(-23.5703125, -12)"><foreignObject width="47.140625" height="24"><div xmlns="http://www.w3.org/1999/xhtml" class="labelBkg" style="display: table-cell; white-space: nowrap; line-height: 1.5; max-width: 200px; text-align: center;"><span class="edgeLabel"><p>tokens</p></span></div></foreignObject></g></g></g><g class="nodes"><g class="node default ambient" id="my-svg-flowchart-hop-0" data-look="classic" transform="translate(223.53515625, 35)"><rect class="basic label-container" style="stroke:#a855f7 !important;stroke-width:2px !important" x="-43.3515625" y="-27" width="86.703125" height="54"/><g class="label" style="" transform="translate(-13.3515625, -12)"><rect/><foreignObject width="26.703125" height="24"><div xmlns="http://www.w3.org/1999/xhtml" style="display: table-cell; white-space: nowrap; line-height: 1.5; max-width: 200px; text-align: center;"><span class="nodeLabel"><p>hop</p></span></div></foreignObject></g></g><g class="node default tool" id="my-svg-flowchart-fab-1" data-look="classic" transform="translate(292.7734375, 163)"><rect class="basic label-container" style="stroke:#3b82f6 !important;stroke-width:2px !important" x="-54.0078125" y="-27" width="108.015625" height="54"/><g class="label" style="" transform="translate(-24.0078125, -12)"><rect/><foreignObject width="48.015625" height="24"><div xmlns="http://www.w3.org/1999/xhtml" style="display: table-cell; white-space: nowrap; line-height: 1.5; max-width: 200px; text-align: center;"><span class="nodeLabel"><p>fab-kit </p></span></div></foreignObject></g></g><g class="node default tool" id="my-svg-flowchart-idea-2" data-look="classic" transform="translate(362.01171875, 35)"><rect class="basic label-container" style="stroke:#3b82f6 !important;stroke-width:2px !important" x="-45.125" y="-27" width="90.25" height="54"/><g class="label" style="" transform="translate(-15.125, -12)"><rect/><foreignObject width="30.25" height="24"><div xmlns="http://www.w3.org/1999/xhtml" style="display: table-cell; white-space: nowrap; line-height: 1.5; max-width: 200px; text-align: center;"><span class="nodeLabel"><p>idea</p></span></div></foreignObject></g></g><g class="node default agent" id="my-svg-flowchart-w1-5" data-look="classic" transform="translate(86.2578125, 267)"><rect class="basic label-container" style="stroke:#10b981 !important;stroke-width:2px !important" x="-78.2578125" y="-27" width="156.515625" height="54"/><g class="label" style="" transform="translate(-48.2578125, -12)"><rect/><foreignObject width="96.515625" height="24"><div xmlns="http://www.w3.org/1999/xhtml" style="display: table-cell; white-space: nowrap; line-height: 1.5; max-width: 200px; text-align: center;"><span class="nodeLabel"><p>wt + agent #1</p></span></div></foreignObject></g></g><g class="node default agent" id="my-svg-flowchart-w2-7" data-look="classic" transform="translate(292.7734375, 267)"><rect class="basic label-container" style="stroke:#10b981 !important;stroke-width:2px !important" x="-78.2578125" y="-27" width="156.515625" height="54"/><g class="label" style="" transform="translate(-48.2578125, -12)"><rect/><foreignObject width="96.515625" height="24"><div xmlns="http://www.w3.org/1999/xhtml" style="display: table-cell; white-space: nowrap; line-height: 1.5; max-width: 200px; text-align: center;"><span class="nodeLabel"><p>wt + agent #2</p></span></div></foreignObject></g></g><g class="node default agent" id="my-svg-flowchart-w3-9" data-look="classic" transform="translate(499.2890625, 267)"><rect class="basic label-container" style="stroke:#10b981 !important;stroke-width:2px !important" x="-78.2578125" y="-27" width="156.515625" height="54"/><g class="label" style="" transform="translate(-48.2578125, -12)"><rect/><foreignObject width="96.515625" height="24"><div xmlns="http://www.w3.org/1999/xhtml" style="display: table-cell; white-space: nowrap; line-height: 1.5; max-width: 200px; text-align: center;"><span class="nodeLabel"><p>wt + agent #3</p></span></div></foreignObject></g></g><g class="node default tool" id="my-svg-flowchart-rk-11" data-look="classic" transform="translate(292.7734375, 371)"><rect class="basic label-container" style="stroke:#3b82f6 !important;stroke-width:2px !important" x="-54.453125" y="-27" width="108.90625" height="54"/><g class="label" style="" transform="translate(-24.453125, -12)"><rect/><foreignObject width="48.90625" height="24"><div xmlns="http://www.w3.org/1999/xhtml" style="display: table-cell; white-space: nowrap; line-height: 1.5; max-width: 200px; text-align: center;"><span class="nodeLabel"><p>run-kit </p></span></div></foreignObject></g></g><g class="node default ship" id="my-svg-flowchart-ship-17" data-look="classic" transform="translate(234.80188465118408, 499)"><g class="basic label-container outer-path"><path d="M-7.5546875 -19.5 C-3.3224946373690365 -19.5, 0.909698225261927 -19.5, 7.5546875 -19.5 C7.5546875 -19.5, 7.554687499999999 -19.5, 7.554687499999999 -19.5 C7.917881973659415 -19.4883530601449, 8.281076447318831 -19.4767061202898, 8.8040567896239 -19.45993515863156 C9.241810338346928 -19.417705600261918, 9.679563887069955 -19.375476041892274, 10.048292152847864 -19.3399052695533 C10.349373175258279 -19.291228824768183, 10.650454197668694 -19.24255237998307, 11.282280759676757 -19.140403561325776 C11.652753335592712 -19.05584561343245, 12.023225911508666 -18.971287665539123, 12.50095188623539 -18.862249829261074 C12.76301443754982 -18.784471039625355, 13.025076988864251 -18.706692249989633, 13.699297751460602 -18.50658706670804 C14.055321015192241 -18.375567214611824, 14.411344278923883 -18.244547362515604, 14.872394095147794 -18.074876768247425 C15.244699183456826 -17.910068349691066, 15.617004271765857 -17.745259931134708, 16.01542041279238 -17.568892924097174 C16.379428383510113 -17.378990198931966, 16.743436354227846 -17.189087473766758, 17.123679764076783 -16.990714730406097 C17.501061067693218 -16.761943966415107, 17.878442371309653 -16.53317320242412, 18.192618073605697 -16.342718045390892 C18.537801769373328 -16.10193284198475, 18.88298546514096 -15.861147638578604, 19.217842844578712 -15.627565626425154 C19.500019431419656 -15.402537307453835, 19.7821960182606 -15.177508988482519, 20.19514120850187 -14.848196188198123 C20.534250559411692 -14.54022604804358, 20.87335991032151 -14.232255907889037, 21.120497236767985 -14.007812326905688 C21.367858583097785 -13.752391428075944, 21.615219929427585 -13.4969705292462, 21.990108442968648 -13.10986736009568 C22.223326301656208 -12.83591639280918, 22.456544160343768 -12.561965425522677, 22.800401408126582 -12.158051136245305 C23.044080522026732 -11.83154332324307, 23.28775963592688 -11.505035510240834, 23.548046464640635 -11.156274872382312 C23.776055741964907 -10.80599139334839, 24.00406501928918 -10.45570791431447, 24.229971378604247 -10.108655082055241 C24.413723184398588 -9.782385143979393, 24.597474990192925 -9.456115205903545, 24.8433739742735 -9.019496659696287 C25.03253988405692 -8.626689600528941, 25.221705793840343 -8.233882541361595, 25.38573364880834 -7.893275190886684 C25.527181644740327 -7.54389590622372, 25.66862964067231 -7.194516621560756, 25.854821729970325 -6.734618561215508 C26.008915161725408 -6.270513696223391, 26.163008593480495 -5.806408831231273, 26.24871063421488 -5.548287939305138 C26.340827252477816 -5.197007350273665, 26.432943870740754 -4.845726761242193, 26.56578178754556 -4.339158212148133 C26.625578525879117 -4.032114598850449, 26.68537526421267 -3.7250709855527653, 26.804732276581777 -3.1121979531509023 C26.84134804387944 -2.82821329259133, 26.8779638111771 -2.544228632031758, 26.964580202509367 -1.872449005199798 C26.990167673514684 -1.473903490457146, 27.01575514452 -1.0753579757144942, 27.044668715913414 -0.6250057626472757 C27.044668715913414 -0.36266080558358843, 27.044668715913414 -0.10031584851990116, 27.044668715913414 0.625005762647271 C27.02126826699253 0.9894866430924808, 26.99786781807164 1.3539675235376905, 26.964580202509367 1.8724490051997846 C26.92076163230994 2.212297182711138, 26.876943062110513 2.5521453602224913, 26.804732276581777 3.1121979531508885 C26.723686000805056 3.528353450127909, 26.64263972502833 3.9445089471049286, 26.56578178754556 4.339158212148129 C26.50114547423953 4.585644488339419, 26.436509160933497 4.832130764530709, 26.248710634214884 5.548287939305125 C26.134906420367592 5.891048099174095, 26.021102206520304 6.233808259043065, 25.85482172997033 6.734618561215495 C25.733381976390376 7.03457710043589, 25.611942222810423 7.334535639656286, 25.385733648808344 7.893275190886679 C25.190907032751266 8.297836827750986, 24.996080416694188 8.702398464615294, 24.843373974273504 9.019496659696284 C24.717557681372828 9.2428962280226, 24.59174138847215 9.466295796348918, 24.22997137860425 10.108655082055236 C24.03801270251661 10.403555156647796, 23.846054026428973 10.698455231240356, 23.54804646464064 11.156274872382301 C23.379218855727895 11.382488487813804, 23.21039124681515 11.608702103245307, 22.800401408126582 12.158051136245302 C22.485398582040986 12.528071379934016, 22.17039575595539 12.89809162362273, 21.99010844296866 13.10986736009567 C21.734858380097364 13.37343400643018, 21.47960831722607 13.63700065276469, 21.12049723676799 14.007812326905684 C20.92693971539568 14.183596146564637, 20.733382194023367 14.35937996622359, 20.195141208501887 14.848196188198111 C19.84708658158697 15.12576049104015, 19.499031954672056 15.403324793882188, 19.217842844578715 15.627565626425152 C19.00969550610578 15.772760199190815, 18.80154816763284 15.91795477195648, 18.192618073605708 16.34271804539089 C17.96928234629568 16.478105475752642, 17.74594661898566 16.61349290611439, 17.123679764076787 16.990714730406093 C16.8711406063227 17.12246424724735, 16.618601448568615 17.254213764088608, 16.015420412792388 17.56889292409717 C15.634672279649124 17.737438828147617, 15.253924146505861 17.905984732198064, 14.872394095147804 18.07487676824742 C14.59699847530208 18.176224902079852, 14.321602855456355 18.27757303591228, 13.699297751460616 18.506587066708033 C13.22748719679505 18.646617962748635, 12.755676642129485 18.78664885878924, 12.500951886235413 18.86224982926107 C12.134372775093496 18.945919119226954, 11.76779366395158 19.029588409192836, 11.282280759676766 19.140403561325773 C11.028278286203399 19.181468711418347, 10.774275812730032 19.222533861510918, 10.048292152847878 19.3399052695533 C9.786519443316017 19.365158168014094, 9.524746733784156 19.390411066474886, 8.8040567896239 19.45993515863156 C8.32768845418432 19.47521136395439, 7.851320118744741 19.49048756927722, 7.5546875000000036 19.5 C7.554687500000003 19.5, 7.554687500000002 19.5, 7.5546875 19.5 C2.816481984470383 19.5, -1.921723531059234 19.5, -7.5546874999999964 19.5 C-7.856459469002281 19.4903227603176, -8.158231438004565 19.480645520635203, -8.804056789623893 19.45993515863156 C-9.194000683241395 19.422317740190426, -9.583944576858896 19.38470032174929, -10.048292152847871 19.3399052695533 C-10.479467519917902 19.270196180020328, -10.910642886987931 19.200487090487357, -11.282280759676759 19.140403561325773 C-11.732025469229018 19.037752266228978, -12.181770178781278 18.93510097113218, -12.500951886235388 18.862249829261074 C-12.923693155307994 18.73678243961453, -13.3464344243806 18.611315049967985, -13.699297751460593 18.506587066708043 C-14.06299746292042 18.372742210887548, -14.426697174380244 18.238897355067056, -14.872394095147797 18.074876768247425 C-15.226277974142072 17.91822287260895, -15.580161853136346 17.761568976970473, -16.01542041279238 17.568892924097174 C-16.363646287016362 17.38722370856384, -16.711872161240347 17.205554493030505, -17.12367976407678 16.990714730406097 C-17.46340447728003 16.78477161281827, -17.803129190483283 16.578828495230443, -18.192618073605686 16.3427180453909 C-18.406484204641007 16.19353429049626, -18.620350335676328 16.04435053560162, -19.217842844578712 15.627565626425156 C-19.570090054398808 15.34665785028555, -19.922337264218907 15.065750074145946, -20.19514120850187 14.848196188198125 C-20.549374715375976 14.526490689760054, -20.903608222250085 14.204785191321985, -21.120497236767974 14.007812326905697 C-21.45036992453338 13.667191693736576, -21.780242612298782 13.326571060567458, -21.990108442968655 13.109867360095677 C-22.230820479774515 12.827113304760605, -22.47153251658037 12.544359249425531, -22.80040140812658 12.158051136245307 C-22.954737927840664 11.951254260174629, -23.109074447554747 11.74445738410395, -23.548046464640635 11.156274872382316 C-23.803244562529844 10.764222063740059, -24.058442660419058 10.372169255097804, -24.229971378604244 10.108655082055249 C-24.436359307505857 9.742192415246416, -24.642747236407473 9.375729748437584, -24.8433739742735 9.019496659696289 C-25.01066569592099 8.672111820225851, -25.177957417568482 8.324726980755413, -25.38573364880834 7.893275190886686 C-25.504196417619507 7.600669861601276, -25.622659186430678 7.308064532315866, -25.854821729970325 6.73461856121551 C-25.97421600902786 6.375022015589227, -26.09361028808539 6.015425469962945, -26.24871063421488 5.5482879393051325 C-26.323407200678837 5.263437557681378, -26.398103767142793 4.978587176057624, -26.565781787545557 4.339158212148136 C-26.622202918163815 4.049447631033556, -26.678624048782076 3.7597370499189764, -26.804732276581777 3.112197953150904 C-26.840842387880485 2.8321350606661535, -26.87695249917919 2.5520721681814034, -26.964580202509364 1.872449005199809 C-26.994287643030447 1.409731639669554, -27.02399508355153 0.9470142741392991, -27.044668715913414 0.6250057626472781 C-27.044668715913414 0.28945176253550403, -27.044668715913414 -0.04610223757627008, -27.044668715913414 -0.6250057626472687 C-27.026041946583746 -0.9151327302144527, -27.007415177254074 -1.2052596977816368, -26.964580202509367 -1.8724490051997822 C-26.927202675604168 -2.162341722848969, -26.889825148698968 -2.452234440498156, -26.804732276581777 -3.112197953150895 C-26.74595310210247 -3.4140165911192266, -26.687173927623157 -3.715835229087558, -26.56578178754556 -4.339158212148126 C-26.48715223866863 -4.639006760277905, -26.408522689791706 -4.938855308407684, -26.248710634214884 -5.548287939305123 C-26.119526187001387 -5.937370911565705, -25.99034173978789 -6.3264538838262885, -25.854821729970332 -6.734618561215485 C-25.721618394948607 -7.063633374030436, -25.58841505992688 -7.392648186845388, -25.385733648808344 -7.893275190886676 C-25.25435456205648 -8.166086675589051, -25.12297547530462 -8.438898160291426, -24.843373974273504 -9.019496659696282 C-24.603783299102393 -9.444914164649248, -24.364192623931277 -9.870331669602214, -24.229971378604247 -10.108655082055243 C-23.974164663946855 -10.501642889489915, -23.71835794928946 -10.894630696924587, -23.54804646464064 -11.156274872382308 C-23.339112599798145 -11.436227217004594, -23.13017873495565 -11.716179561626882, -22.800401408126586 -12.158051136245302 C-22.515971496395267 -12.492158695085374, -22.231541584663947 -12.826266253925445, -21.990108442968662 -13.10986736009567 C-21.720006109963737 -13.388770194737207, -21.449903776958813 -13.667673029378744, -21.120497236767996 -14.007812326905677 C-20.800455089832607 -14.298466136901213, -20.480412942897217 -14.589119946896751, -20.195141208501887 -14.848196188198107 C-19.877655951822533 -15.101382231762393, -19.560170695143178 -15.35456827532668, -19.21784284457872 -15.627565626425149 C-18.927755621885566 -15.829917915302415, -18.637668399192414 -16.03227020417968, -18.19261807360571 -16.342718045390885 C-17.819260859121115 -16.56904938290198, -17.44590364463652 -16.795380720413075, -17.12367976407679 -16.99071473040609 C-16.778150180190092 -17.17097729299752, -16.432620596303394 -17.35123985558895, -16.015420412792388 -17.56889292409717 C-15.607778626222752 -17.74934385074759, -15.200136839653116 -17.92979477739801, -14.872394095147806 -18.07487676824742 C-14.51698030776999 -18.20567232741149, -14.16156652039217 -18.336467886575566, -13.699297751460618 -18.506587066708033 C-13.311045651655725 -18.621818251953265, -12.92279355185083 -18.7370494371985, -12.500951886235413 -18.862249829261067 C-12.060823645377027 -18.96270622813181, -11.62069540451864 -19.063162627002555, -11.282280759676768 -19.140403561325773 C-10.911503527286722 -19.200347948838214, -10.540726294896675 -19.260292336350656, -10.04829215284788 -19.3399052695533 C-9.794339414821083 -19.36440378476789, -9.540386676794286 -19.388902299982483, -8.804056789623903 -19.45993515863156 C-8.389575943012236 -19.47322675264437, -7.975095096400568 -19.486518346657178, -7.554687500000006 -19.5 C-7.554687500000005 -19.5, -7.5546875000000036 -19.5, -7.5546875 -19.5" stroke="none" stroke-width="0" fill="#1f2020" style="stroke:#f97316 !important;stroke-width:2px !important"/><path d="M-7.5546875 -19.5 C-3.2222565673095325 -19.5, 1.110174365380935 -19.5, 7.5546875 -19.5 M-7.5546875 -19.5 C-2.037823116839853 -19.5, 3.4790412663202943 -19.5, 7.5546875 -19.5 M7.5546875 -19.5 C7.5546875 -19.5, 7.554687499999999 -19.5, 7.554687499999999 -19.5 M7.5546875 -19.5 C7.5546875 -19.5, 7.554687499999999 -19.5, 7.554687499999999 -19.5 M7.554687499999999 -19.5 C7.948419741393531 -19.487373773371825, 8.342151982787062 -19.47474754674365, 8.8040567896239 -19.45993515863156 M7.554687499999999 -19.5 C8.05045144194767 -19.484101815327712, 8.546215383895342 -19.468203630655424, 8.8040567896239 -19.45993515863156 M8.8040567896239 -19.45993515863156 C9.091086508407342 -19.43224574686426, 9.378116227190784 -19.404556335096967, 10.048292152847864 -19.3399052695533 M8.8040567896239 -19.45993515863156 C9.17774935090082 -19.423885486676234, 9.551441912177742 -19.38783581472091, 10.048292152847864 -19.3399052695533 M10.048292152847864 -19.3399052695533 C10.30782549835968 -19.297945930962104, 10.567358843871496 -19.255986592370906, 11.282280759676757 -19.140403561325776 M10.048292152847864 -19.3399052695533 C10.304736565734846 -19.298445325633857, 10.56118097862183 -19.256985381714415, 11.282280759676757 -19.140403561325776 M11.282280759676757 -19.140403561325776 C11.677210122644647 -19.050263511383296, 12.072139485612537 -18.960123461440816, 12.50095188623539 -18.862249829261074 M11.282280759676757 -19.140403561325776 C11.72527885533901 -19.039292136823605, 12.16827695100126 -18.93818071232143, 12.50095188623539 -18.862249829261074 M12.50095188623539 -18.862249829261074 C12.890884796319158 -18.746519788347825, 13.280817706402926 -18.630789747434576, 13.699297751460602 -18.50658706670804 M12.50095188623539 -18.862249829261074 C12.976032953630524 -18.72124826220961, 13.451114021025658 -18.580246695158145, 13.699297751460602 -18.50658706670804 M13.699297751460602 -18.50658706670804 C14.056951306783253 -18.37496725223608, 14.414604862105904 -18.243347437764122, 14.872394095147794 -18.074876768247425 M13.699297751460602 -18.50658706670804 C14.111356375699783 -18.354945683959855, 14.523414999938964 -18.203304301211666, 14.872394095147794 -18.074876768247425 M14.872394095147794 -18.074876768247425 C15.18559601920735 -17.936231567271232, 15.498797943266908 -17.797586366295043, 16.01542041279238 -17.568892924097174 M14.872394095147794 -18.074876768247425 C15.31669811352825 -17.878196559120823, 15.761002131908707 -17.68151634999422, 16.01542041279238 -17.568892924097174 M16.01542041279238 -17.568892924097174 C16.354019720904194 -17.392245881938447, 16.69261902901601 -17.215598839779723, 17.123679764076783 -16.990714730406097 M16.01542041279238 -17.568892924097174 C16.25679840378535 -17.442966180806124, 16.49817639477832 -17.317039437515074, 17.123679764076783 -16.990714730406097 M17.123679764076783 -16.990714730406097 C17.486833058315383 -16.770569069313016, 17.849986352553984 -16.550423408219935, 18.192618073605697 -16.342718045390892 M17.123679764076783 -16.990714730406097 C17.492473834756076 -16.767149597485787, 17.861267905435366 -16.543584464565477, 18.192618073605697 -16.342718045390892 M18.192618073605697 -16.342718045390892 C18.54790355271621 -16.094886275223907, 18.903189031826724 -15.847054505056919, 19.217842844578712 -15.627565626425154 M18.192618073605697 -16.342718045390892 C18.5076442276879 -16.122969437565565, 18.822670381770106 -15.903220829740235, 19.217842844578712 -15.627565626425154 M19.217842844578712 -15.627565626425154 C19.55870559929676 -15.35573665027636, 19.89956835401481 -15.083907674127564, 20.19514120850187 -14.848196188198123 M19.217842844578712 -15.627565626425154 C19.527425491193743 -15.38068170408988, 19.837008137808773 -15.133797781754609, 20.19514120850187 -14.848196188198123 M20.19514120850187 -14.848196188198123 C20.48487275587536 -14.585069662750186, 20.774604303248854 -14.321943137302247, 21.120497236767985 -14.007812326905688 M20.19514120850187 -14.848196188198123 C20.383290592126983 -14.677323896149693, 20.571439975752096 -14.50645160410126, 21.120497236767985 -14.007812326905688 M21.120497236767985 -14.007812326905688 C21.296314024390025 -13.826267058859218, 21.472130812012065 -13.644721790812747, 21.990108442968648 -13.10986736009568 M21.120497236767985 -14.007812326905688 C21.381861744895033 -13.737932013839321, 21.64322625302208 -13.468051700772957, 21.990108442968648 -13.10986736009568 M21.990108442968648 -13.10986736009568 C22.15847687247361 -12.912092222364112, 22.326845301978572 -12.714317084632542, 22.800401408126582 -12.158051136245305 M21.990108442968648 -13.10986736009568 C22.28948427413137 -12.758203473844574, 22.588860105294096 -12.406539587593468, 22.800401408126582 -12.158051136245305 M22.800401408126582 -12.158051136245305 C22.953711680911148 -11.952629337567162, 23.107021953695714 -11.74720753888902, 23.548046464640635 -11.156274872382312 M22.800401408126582 -12.158051136245305 C23.07419645132431 -11.791190721601915, 23.347991494522038 -11.424330306958526, 23.548046464640635 -11.156274872382312 M23.548046464640635 -11.156274872382312 C23.807115398843973 -10.758275419696467, 24.066184333047314 -10.360275967010622, 24.229971378604247 -10.108655082055241 M23.548046464640635 -11.156274872382312 C23.764092411203254 -10.824370282002409, 23.98013835776587 -10.492465691622504, 24.229971378604247 -10.108655082055241 M24.229971378604247 -10.108655082055241 C24.381668261051708 -9.839301906294741, 24.533365143499168 -9.56994873053424, 24.8433739742735 -9.019496659696287 M24.229971378604247 -10.108655082055241 C24.448710562412753 -9.720261511459041, 24.667449746221262 -9.331867940862839, 24.8433739742735 -9.019496659696287 M24.8433739742735 -9.019496659696287 C25.050509243119922 -8.589375841951929, 25.257644511966344 -8.15925502420757, 25.38573364880834 -7.893275190886684 M24.8433739742735 -9.019496659696287 C24.968976879339046 -8.758679539856038, 25.09457978440459 -8.497862420015789, 25.38573364880834 -7.893275190886684 M25.38573364880834 -7.893275190886684 C25.523517653277064 -7.552946035976434, 25.66130165774579 -7.212616881066183, 25.854821729970325 -6.734618561215508 M25.38573364880834 -7.893275190886684 C25.559312376752725 -7.464532376947652, 25.73289110469711 -7.035789563008619, 25.854821729970325 -6.734618561215508 M25.854821729970325 -6.734618561215508 C26.009849049735344 -6.267700974332313, 26.164876369500366 -5.800783387449118, 26.24871063421488 -5.548287939305138 M25.854821729970325 -6.734618561215508 C25.991332996351154 -6.323468376993023, 26.127844262731983 -5.912318192770538, 26.24871063421488 -5.548287939305138 M26.24871063421488 -5.548287939305138 C26.369970189996682 -5.085872698885219, 26.49122974577848 -4.623457458465301, 26.56578178754556 -4.339158212148133 M26.24871063421488 -5.548287939305138 C26.367795408853816 -5.094166081939075, 26.48688018349275 -4.640044224573011, 26.56578178754556 -4.339158212148133 M26.56578178754556 -4.339158212148133 C26.659499672339997 -3.8579366810106706, 26.753217557134434 -3.376715149873208, 26.804732276581777 -3.1121979531509023 M26.56578178754556 -4.339158212148133 C26.615069663576463 -4.086075385725734, 26.664357539607366 -3.8329925593033347, 26.804732276581777 -3.1121979531509023 M26.804732276581777 -3.1121979531509023 C26.837364551797496 -2.8591084705493905, 26.869996827013214 -2.6060189879478792, 26.964580202509367 -1.872449005199798 M26.804732276581777 -3.1121979531509023 C26.863787300064217 -2.654178852754524, 26.922842323546657 -2.1961597523581453, 26.964580202509367 -1.872449005199798 M26.964580202509367 -1.872449005199798 C26.98642543023894 -1.532191950161248, 27.008270657968513 -1.191934895122698, 27.044668715913414 -0.6250057626472757 M26.964580202509367 -1.872449005199798 C26.993460533794785 -1.4226145336455769, 27.022340865080203 -0.9727800620913557, 27.044668715913414 -0.6250057626472757 M27.044668715913414 -0.6250057626472757 C27.044668715913414 -0.2921476783383961, 27.044668715913414 0.040710405970483476, 27.044668715913414 0.625005762647271 M27.044668715913414 -0.6250057626472757 C27.044668715913414 -0.2564079030057344, 27.044668715913414 0.11218995663580689, 27.044668715913414 0.625005762647271 M27.044668715913414 0.625005762647271 C27.014581267070774 1.0936420645229994, 26.98449381822813 1.5622783663987279, 26.964580202509367 1.8724490051997846 M27.044668715913414 0.625005762647271 C27.01983572579085 1.0117996286351048, 26.99500273566828 1.3985934946229381, 26.964580202509367 1.8724490051997846 M26.964580202509367 1.8724490051997846 C26.932108392686093 2.124293949904961, 26.899636582862822 2.376138894610137, 26.804732276581777 3.1121979531508885 M26.964580202509367 1.8724490051997846 C26.90411701615901 2.341389538726522, 26.843653829808655 2.81033007225326, 26.804732276581777 3.1121979531508885 M26.804732276581777 3.1121979531508885 C26.725758503727597 3.5177115856443075, 26.646784730873417 3.9232252181377265, 26.56578178754556 4.339158212148129 M26.804732276581777 3.1121979531508885 C26.73387640421974 3.4760278823360236, 26.663020531857704 3.839857811521159, 26.56578178754556 4.339158212148129 M26.56578178754556 4.339158212148129 C26.4442404895156 4.802647857868145, 26.322699191485643 5.26613750358816, 26.248710634214884 5.548287939305125 M26.56578178754556 4.339158212148129 C26.469698749393956 4.70556447927235, 26.37361571124235 5.071970746396571, 26.248710634214884 5.548287939305125 M26.248710634214884 5.548287939305125 C26.15170744959522 5.8404460760209576, 26.05470426497556 6.13260421273679, 25.85482172997033 6.734618561215495 M26.248710634214884 5.548287939305125 C26.09448857388946 6.012780213056924, 25.940266513564037 6.477272486808723, 25.85482172997033 6.734618561215495 M25.85482172997033 6.734618561215495 C25.7344167948738 7.0320210787749815, 25.614011859777268 7.329423596334468, 25.385733648808344 7.893275190886679 M25.85482172997033 6.734618561215495 C25.69854392968715 7.120627749340668, 25.542266129403973 7.50663693746584, 25.385733648808344 7.893275190886679 M25.385733648808344 7.893275190886679 C25.269701093368358 8.134219274956774, 25.153668537928375 8.375163359026867, 24.843373974273504 9.019496659696284 M25.385733648808344 7.893275190886679 C25.193765635166702 8.29190087867104, 25.00179762152506 8.6905265664554, 24.843373974273504 9.019496659696284 M24.843373974273504 9.019496659696284 C24.665558894061682 9.33522534034172, 24.487743813849857 9.65095402098716, 24.22997137860425 10.108655082055236 M24.843373974273504 9.019496659696284 C24.630835628148695 9.396880015082173, 24.41829728202389 9.774263370468061, 24.22997137860425 10.108655082055236 M24.22997137860425 10.108655082055236 C23.98654761734706 10.482619347778622, 23.74312385608987 10.856583613502007, 23.54804646464064 11.156274872382301 M24.22997137860425 10.108655082055236 C24.04847008688618 10.387489806055251, 23.86696879516811 10.666324530055265, 23.54804646464064 11.156274872382301 M23.54804646464064 11.156274872382301 C23.256076334555253 11.54748824767068, 22.964106204469864 11.938701622959057, 22.800401408126582 12.158051136245302 M23.54804646464064 11.156274872382301 C23.289050902439445 11.503305330750793, 23.030055340238253 11.850335789119285, 22.800401408126582 12.158051136245302 M22.800401408126582 12.158051136245302 C22.482620315630186 12.531334889747981, 22.16483922313379 12.904618643250659, 21.99010844296866 13.10986736009567 M22.800401408126582 12.158051136245302 C22.506933470273328 12.502775274846453, 22.213465532420074 12.847499413447606, 21.99010844296866 13.10986736009567 M21.99010844296866 13.10986736009567 C21.67614883936108 13.434056427383329, 21.362189235753505 13.75824549467099, 21.12049723676799 14.007812326905684 M21.99010844296866 13.10986736009567 C21.79016986010542 13.3163203621649, 21.59023127724218 13.52277336423413, 21.12049723676799 14.007812326905684 M21.12049723676799 14.007812326905684 C20.77751243388689 14.319302050001703, 20.434527631005793 14.63079177309772, 20.195141208501887 14.848196188198111 M21.12049723676799 14.007812326905684 C20.8682415530136 14.236904264571772, 20.61598586925921 14.465996202237857, 20.195141208501887 14.848196188198111 M20.195141208501887 14.848196188198111 C19.876198425646592 15.102544570101307, 19.5572556427913 15.356892952004502, 19.217842844578715 15.627565626425152 M20.195141208501887 14.848196188198111 C19.950312478612272 15.043440585118958, 19.705483748722653 15.238684982039805, 19.217842844578715 15.627565626425152 M19.217842844578715 15.627565626425152 C18.992298092767808 15.784895881613497, 18.766753340956903 15.942226136801844, 18.192618073605708 16.34271804539089 M19.217842844578715 15.627565626425152 C18.83303270147525 15.895992524091518, 18.448222558371782 16.164419421757884, 18.192618073605708 16.34271804539089 M18.192618073605708 16.34271804539089 C17.841320249348637 16.55567685091069, 17.490022425091567 16.768635656430494, 17.123679764076787 16.990714730406093 M18.192618073605708 16.34271804539089 C17.785485539853475 16.58952417992783, 17.378353006101243 16.836330314464774, 17.123679764076787 16.990714730406093 M17.123679764076787 16.990714730406093 C16.85075818260924 17.133097744643095, 16.577836601141694 17.2754807588801, 16.015420412792388 17.56889292409717 M17.123679764076787 16.990714730406093 C16.79004861621583 17.164769886544207, 16.45641746835487 17.338825042682316, 16.015420412792388 17.56889292409717 M16.015420412792388 17.56889292409717 C15.614706302088013 17.74627717414424, 15.213992191383637 17.923661424191312, 14.872394095147804 18.07487676824742 M16.015420412792388 17.56889292409717 C15.615003449160714 17.74614563594971, 15.214586485529042 17.92339834780225, 14.872394095147804 18.07487676824742 M14.872394095147804 18.07487676824742 C14.450518834853154 18.230130763808006, 14.028643574558506 18.385384759368595, 13.699297751460616 18.506587066708033 M14.872394095147804 18.07487676824742 C14.49792130586059 18.212686216293633, 14.123448516573374 18.350495664339846, 13.699297751460616 18.506587066708033 M13.699297751460616 18.506587066708033 C13.331214696093609 18.61583218543358, 12.963131640726601 18.72507730415912, 12.500951886235413 18.86224982926107 M13.699297751460616 18.506587066708033 C13.347773284162027 18.610917683412673, 12.996248816863439 18.715248300117313, 12.500951886235413 18.86224982926107 M12.500951886235413 18.86224982926107 C12.034786957898483 18.968648932143527, 11.568622029561554 19.075048035025983, 11.282280759676766 19.140403561325773 M12.500951886235413 18.86224982926107 C12.023426611827663 18.971241857001004, 11.545901337419913 19.080233884740938, 11.282280759676766 19.140403561325773 M11.282280759676766 19.140403561325773 C11.031775718323535 19.180903273716154, 10.781270676970303 19.221402986106533, 10.048292152847878 19.3399052695533 M11.282280759676766 19.140403561325773 C10.891204706435142 19.20362970477379, 10.500128653193517 19.26685584822181, 10.048292152847878 19.3399052695533 M10.048292152847878 19.3399052695533 C9.691960304639148 19.374280174398248, 9.335628456430417 19.408655079243196, 8.8040567896239 19.45993515863156 M10.048292152847878 19.3399052695533 C9.627660703309116 19.38048307960697, 9.207029253770356 19.421060889660644, 8.8040567896239 19.45993515863156 M8.8040567896239 19.45993515863156 C8.355874888638889 19.474307479863, 7.9076929876538795 19.488679801094438, 7.5546875000000036 19.5 M8.8040567896239 19.45993515863156 C8.41782366880416 19.472320903059085, 8.031590547984422 19.48470664748661, 7.5546875000000036 19.5 M7.5546875000000036 19.5 C7.554687500000003 19.5, 7.554687500000001 19.5, 7.5546875 19.5 M7.5546875000000036 19.5 C7.554687500000003 19.5, 7.554687500000002 19.5, 7.5546875 19.5 M7.5546875 19.5 C1.6531565557889207 19.5, -4.2483743884221585 19.5, -7.5546874999999964 19.5 M7.5546875 19.5 C2.1840854473181324 19.5, -3.1865166053637353 19.5, -7.5546874999999964 19.5 M-7.5546874999999964 19.5 C-7.844256444868185 19.490714087549836, -8.133825389736373 19.481428175099673, -8.804056789623893 19.45993515863156 M-7.5546874999999964 19.5 C-7.9812474234434045 19.486321053503694, -8.407807346886813 19.472642107007385, -8.804056789623893 19.45993515863156 M-8.804056789623893 19.45993515863156 C-9.215021998035288 19.420289839234087, -9.625987206446684 19.380644519836615, -10.048292152847871 19.3399052695533 M-8.804056789623893 19.45993515863156 C-9.104562486172727 19.43094573549647, -9.40506818272156 19.40195631236138, -10.048292152847871 19.3399052695533 M-10.048292152847871 19.3399052695533 C-10.350539242639423 19.29104030403699, -10.652786332430974 19.242175338520678, -11.282280759676759 19.140403561325773 M-10.048292152847871 19.3399052695533 C-10.534563850545325 19.26128863256291, -11.020835548242777 19.182671995572523, -11.282280759676759 19.140403561325773 M-11.282280759676759 19.140403561325773 C-11.726701851409782 19.038967347256364, -12.171122943142803 18.937531133186955, -12.500951886235388 18.862249829261074 M-11.282280759676759 19.140403561325773 C-11.768147782265748 19.029507583998466, -12.254014804854737 18.918611606671156, -12.500951886235388 18.862249829261074 M-12.500951886235388 18.862249829261074 C-12.906334119107527 18.741934510439386, -13.311716351979666 18.6216191916177, -13.699297751460593 18.506587066708043 M-12.500951886235388 18.862249829261074 C-12.8247483649711 18.766148734014717, -13.148544843706812 18.670047638768356, -13.699297751460593 18.506587066708043 M-13.699297751460593 18.506587066708043 C-14.154088003305894 18.33922004999397, -14.608878255151197 18.171853033279895, -14.872394095147797 18.074876768247425 M-13.699297751460593 18.506587066708043 C-13.940242857035134 18.417917040584474, -14.181187962609673 18.3292470144609, -14.872394095147797 18.074876768247425 M-14.872394095147797 18.074876768247425 C-15.14967099986672 17.952134507655497, -15.426947904585642 17.82939224706357, -16.01542041279238 17.568892924097174 M-14.872394095147797 18.074876768247425 C-15.164226561382277 17.94569119234795, -15.456059027616755 17.816505616448477, -16.01542041279238 17.568892924097174 M-16.01542041279238 17.568892924097174 C-16.41268740459706 17.361638988934324, -16.809954396401743 17.154385053771474, -17.12367976407678 16.990714730406097 M-16.01542041279238 17.568892924097174 C-16.31790056996981 17.411089219845493, -16.620380727147243 17.253285515593817, -17.12367976407678 16.990714730406097 M-17.12367976407678 16.990714730406097 C-17.5371902215007 16.740042261058537, -17.950700678924623 16.489369791710974, -18.192618073605686 16.3427180453909 M-17.12367976407678 16.990714730406097 C-17.414752300748788 16.814264848143434, -17.705824837420796 16.63781496588077, -18.192618073605686 16.3427180453909 M-18.192618073605686 16.3427180453909 C-18.54010318262627 16.100327475726072, -18.887588291646853 15.85793690606124, -19.217842844578712 15.627565626425156 M-18.192618073605686 16.3427180453909 C-18.598303592575377 16.05972938920071, -19.00398911154507 15.776740733010527, -19.217842844578712 15.627565626425156 M-19.217842844578712 15.627565626425156 C-19.444730411355042 15.446628829652752, -19.671617978131376 15.265692032880347, -20.19514120850187 14.848196188198125 M-19.217842844578712 15.627565626425156 C-19.447266370215225 15.444606469946457, -19.676689895851737 15.261647313467758, -20.19514120850187 14.848196188198125 M-20.19514120850187 14.848196188198125 C-20.48900593289587 14.581316020738031, -20.78287065728987 14.314435853277939, -21.120497236767974 14.007812326905697 M-20.19514120850187 14.848196188198125 C-20.50966385660822 14.562555041001186, -20.824186504714568 14.276913893804245, -21.120497236767974 14.007812326905697 M-21.120497236767974 14.007812326905697 C-21.340001928292534 13.781155711236257, -21.559506619817096 13.554499095566818, -21.990108442968655 13.109867360095677 M-21.120497236767974 14.007812326905697 C-21.43046799747836 13.687742067399483, -21.740438758188745 13.36767180789327, -21.990108442968655 13.109867360095677 M-21.990108442968655 13.109867360095677 C-22.30943126989274 12.734772597607058, -22.62875409681683 12.35967783511844, -22.80040140812658 12.158051136245307 M-21.990108442968655 13.109867360095677 C-22.226974387107717 12.831631144055896, -22.46384033124678 12.553394928016115, -22.80040140812658 12.158051136245307 M-22.80040140812658 12.158051136245307 C-22.95666763238115 11.948668631890076, -23.11293385663572 11.739286127534845, -23.548046464640635 11.156274872382316 M-22.80040140812658 12.158051136245307 C-22.95148950739238 11.955606847638135, -23.102577606658183 11.753162559030963, -23.548046464640635 11.156274872382316 M-23.548046464640635 11.156274872382316 C-23.70767576233753 10.91104140465158, -23.867305060034425 10.665807936920848, -24.229971378604244 10.108655082055249 M-23.548046464640635 11.156274872382316 C-23.79306136056888 10.779866196524704, -24.038076256497128 10.403457520667093, -24.229971378604244 10.108655082055249 M-24.229971378604244 10.108655082055249 C-24.36223510706969 9.87380743901004, -24.494498835535136 9.63895979596483, -24.8433739742735 9.019496659696289 M-24.229971378604244 10.108655082055249 C-24.375044583506494 9.851062916496353, -24.52011778840874 9.59347075093746, -24.8433739742735 9.019496659696289 M-24.8433739742735 9.019496659696289 C-25.009154206027116 8.675250461331188, -25.17493443778073 8.331004262966086, -25.38573364880834 7.893275190886686 M-24.8433739742735 9.019496659696289 C-24.982513214376645 8.73057105051929, -25.121652454479793 8.44164544134229, -25.38573364880834 7.893275190886686 M-25.38573364880834 7.893275190886686 C-25.482805035019975 7.653506990196372, -25.57987642123161 7.413738789506058, -25.854821729970325 6.73461856121551 M-25.38573364880834 7.893275190886686 C-25.56663579312173 7.4464433969275845, -25.747537937435123 6.999611602968482, -25.854821729970325 6.73461856121551 M-25.854821729970325 6.73461856121551 C-25.962406462292883 6.410590488759223, -26.06999119461544 6.086562416302937, -26.24871063421488 5.5482879393051325 M-25.854821729970325 6.73461856121551 C-25.96394054598761 6.405970073093745, -26.073059362004898 6.0773215849719815, -26.24871063421488 5.5482879393051325 M-26.24871063421488 5.5482879393051325 C-26.340059976451634 5.1999333063010225, -26.431409318688388 4.851578673296912, -26.565781787545557 4.339158212148136 M-26.24871063421488 5.5482879393051325 C-26.367474100793725 5.09539136882798, -26.486237567372573 4.642494798350828, -26.565781787545557 4.339158212148136 M-26.565781787545557 4.339158212148136 C-26.639122413944932 3.962569596134232, -26.712463040344307 3.585980980120328, -26.804732276581777 3.112197953150904 M-26.565781787545557 4.339158212148136 C-26.62794020007415 4.0199879009989585, -26.690098612602743 3.7008175898497817, -26.804732276581777 3.112197953150904 M-26.804732276581777 3.112197953150904 C-26.86254247915763 2.6638334378883295, -26.92035268173348 2.2154689226257545, -26.964580202509364 1.872449005199809 M-26.804732276581777 3.112197953150904 C-26.846687899320024 2.7867984282678875, -26.888643522058267 2.461398903384871, -26.964580202509364 1.872449005199809 M-26.964580202509364 1.872449005199809 C-26.98513008946292 1.552367928327991, -27.005679976416474 1.232286851456173, -27.044668715913414 0.6250057626472781 M-26.964580202509364 1.872449005199809 C-26.988613936620027 1.4981041967452247, -27.01264767073069 1.12375938829064, -27.044668715913414 0.6250057626472781 M-27.044668715913414 0.6250057626472781 C-27.044668715913414 0.3305635147548672, -27.044668715913414 0.036121266862456314, -27.044668715913414 -0.6250057626472687 M-27.044668715913414 0.6250057626472781 C-27.044668715913414 0.21322652725030228, -27.044668715913414 -0.19855270814667358, -27.044668715913414 -0.6250057626472687 M-27.044668715913414 -0.6250057626472687 C-27.025831064897844 -0.9184173826929729, -27.006993413882277 -1.211829002738677, -26.964580202509367 -1.8724490051997822 M-27.044668715913414 -0.6250057626472687 C-27.016949407164244 -1.0567563710388979, -26.989230098415074 -1.488506979430527, -26.964580202509367 -1.8724490051997822 M-26.964580202509367 -1.8724490051997822 C-26.92346114693312 -2.191360280373211, -26.882342091356872 -2.5102715555466393, -26.804732276581777 -3.112197953150895 M-26.964580202509367 -1.8724490051997822 C-26.92826308202361 -2.154117420060717, -26.89194596153785 -2.435785834921652, -26.804732276581777 -3.112197953150895 M-26.804732276581777 -3.112197953150895 C-26.74061782468538 -3.441412113044694, -26.676503372788982 -3.770626272938493, -26.56578178754556 -4.339158212148126 M-26.804732276581777 -3.112197953150895 C-26.74809845643011 -3.4030006500675873, -26.69146463627844 -3.6938033469842795, -26.56578178754556 -4.339158212148126 M-26.56578178754556 -4.339158212148126 C-26.452001696675847 -4.773051011237667, -26.338221605806133 -5.206943810327208, -26.248710634214884 -5.548287939305123 M-26.56578178754556 -4.339158212148126 C-26.454116788114664 -4.7649852508950294, -26.342451788683764 -5.190812289641933, -26.248710634214884 -5.548287939305123 M-26.248710634214884 -5.548287939305123 C-26.11977389834259 -5.936624844473446, -25.990837162470296 -6.324961749641769, -25.854821729970332 -6.734618561215485 M-26.248710634214884 -5.548287939305123 C-26.102295310532327 -5.9892675661231785, -25.95587998684977 -6.430247192941234, -25.854821729970332 -6.734618561215485 M-25.854821729970332 -6.734618561215485 C-25.724293060593364 -7.057026898176743, -25.593764391216393 -7.379435235138002, -25.385733648808344 -7.893275190886676 M-25.854821729970332 -6.734618561215485 C-25.7267590765733 -7.050935791029131, -25.59869642317626 -7.367253020842776, -25.385733648808344 -7.893275190886676 M-25.385733648808344 -7.893275190886676 C-25.21109491415107 -8.25591626007283, -25.03645617949379 -8.618557329258985, -24.843373974273504 -9.019496659696282 M-25.385733648808344 -7.893275190886676 C-25.17643412713675 -8.327890125930098, -24.967134605465155 -8.76250506097352, -24.843373974273504 -9.019496659696282 M-24.843373974273504 -9.019496659696282 C-24.713713257369484 -9.24972239213068, -24.58405254046546 -9.479948124565079, -24.229971378604247 -10.108655082055243 M-24.843373974273504 -9.019496659696282 C-24.677757930603118 -9.313564715676002, -24.512141886932728 -9.60763277165572, -24.229971378604247 -10.108655082055243 M-24.229971378604247 -10.108655082055243 C-24.06457268266464 -10.362751894787136, -23.89917398672503 -10.61684870751903, -23.54804646464064 -11.156274872382308 M-24.229971378604247 -10.108655082055243 C-24.009956033847438 -10.446657733994085, -23.78994068909063 -10.784660385932925, -23.54804646464064 -11.156274872382308 M-23.54804646464064 -11.156274872382308 C-23.295119148238047 -11.49517443420924, -23.042191831835453 -11.834073996036171, -22.800401408126586 -12.158051136245302 M-23.54804646464064 -11.156274872382308 C-23.350303825329668 -11.421231994333974, -23.152561186018694 -11.686189116285641, -22.800401408126586 -12.158051136245302 M-22.800401408126586 -12.158051136245302 C-22.53695438044994 -12.467511005514828, -22.273507352773294 -12.776970874784354, -21.990108442968662 -13.10986736009567 M-22.800401408126586 -12.158051136245302 C-22.51263466918454 -12.49607832219794, -22.224867930242496 -12.834105508150579, -21.990108442968662 -13.10986736009567 M-21.990108442968662 -13.10986736009567 C-21.690762010486285 -13.418967128432897, -21.391415578003908 -13.728066896770121, -21.120497236767996 -14.007812326905677 M-21.990108442968662 -13.10986736009567 C-21.691585206776725 -13.418117110677343, -21.39306197058479 -13.726366861259018, -21.120497236767996 -14.007812326905677 M-21.120497236767996 -14.007812326905677 C-20.87249392947702 -14.233042368779406, -20.624490622186045 -14.458272410653136, -20.195141208501887 -14.848196188198107 M-21.120497236767996 -14.007812326905677 C-20.902223358858418 -14.206042887612817, -20.68394948094884 -14.404273448319959, -20.195141208501887 -14.848196188198107 M-20.195141208501887 -14.848196188198107 C-19.80901786566136 -15.156119278939746, -19.422894522820833 -15.464042369681385, -19.21784284457872 -15.627565626425149 M-20.195141208501887 -14.848196188198107 C-19.869875730629506 -15.107586751123453, -19.54461025275712 -15.366977314048796, -19.21784284457872 -15.627565626425149 M-19.21784284457872 -15.627565626425149 C-18.83723082635627 -15.893064093908416, -18.45661880813382 -16.158562561391683, -18.19261807360571 -16.342718045390885 M-19.21784284457872 -15.627565626425149 C-18.81119201857973 -15.911227639011505, -18.404541192580744 -16.19488965159786, -18.19261807360571 -16.342718045390885 M-18.19261807360571 -16.342718045390885 C-17.90807725137767 -16.515208363973002, -17.623536429149627 -16.68769868255512, -17.12367976407679 -16.99071473040609 M-18.19261807360571 -16.342718045390885 C-17.77299364159651 -16.597096842061745, -17.353369209587314 -16.851475638732605, -17.12367976407679 -16.99071473040609 M-17.12367976407679 -16.99071473040609 C-16.77640221696256 -17.1718892042937, -16.42912466984833 -17.353063678181307, -16.015420412792388 -17.56889292409717 M-17.12367976407679 -16.99071473040609 C-16.803203271466202 -17.157907111326043, -16.482726778855618 -17.325099492245997, -16.015420412792388 -17.56889292409717 M-16.015420412792388 -17.56889292409717 C-15.751062934568637 -17.685916137820858, -15.486705456344884 -17.80293935154454, -14.872394095147806 -18.07487676824742 M-16.015420412792388 -17.56889292409717 C-15.700178879149902 -17.708440999732854, -15.384937345507417 -17.84798907536854, -14.872394095147806 -18.07487676824742 M-14.872394095147806 -18.07487676824742 C-14.531175376346958 -18.200448410957392, -14.18995665754611 -18.326020053667364, -13.699297751460618 -18.506587066708033 M-14.872394095147806 -18.07487676824742 C-14.631412695946743 -18.163560150761047, -14.390431296745678 -18.252243533274672, -13.699297751460618 -18.506587066708033 M-13.699297751460618 -18.506587066708033 C-13.333749730189794 -18.615079800620496, -12.968201708918969 -18.723572534532956, -12.500951886235413 -18.862249829261067 M-13.699297751460618 -18.506587066708033 C-13.23475000739147 -18.644462398686887, -12.770202263322323 -18.78233773066574, -12.500951886235413 -18.862249829261067 M-12.500951886235413 -18.862249829261067 C-12.150806345914878 -18.942168263926042, -11.800660805594344 -19.022086698591018, -11.282280759676768 -19.140403561325773 M-12.500951886235413 -18.862249829261067 C-12.197010221313493 -18.931622530874773, -11.893068556391574 -19.000995232488478, -11.282280759676768 -19.140403561325773 M-11.282280759676768 -19.140403561325773 C-10.971339452639798 -19.19067414046166, -10.660398145602827 -19.240944719597547, -10.04829215284788 -19.3399052695533 M-11.282280759676768 -19.140403561325773 C-10.837993837925644 -19.21223242533796, -10.393706916174521 -19.284061289350145, -10.04829215284788 -19.3399052695533 M-10.04829215284788 -19.3399052695533 C-9.679928863420262 -19.375440833062708, -9.311565573992645 -19.41097639657212, -8.804056789623903 -19.45993515863156 M-10.04829215284788 -19.3399052695533 C-9.78580321689799 -19.36522726151525, -9.523314280948101 -19.390549253477207, -8.804056789623903 -19.45993515863156 M-8.804056789623903 -19.45993515863156 C-8.33142389923795 -19.475091575502123, -7.8587910088519966 -19.490247992372687, -7.554687500000006 -19.5 M-8.804056789623903 -19.45993515863156 C-8.328006456902026 -19.47520116622619, -7.851956124180148 -19.490467173820818, -7.554687500000006 -19.5 M-7.554687500000006 -19.5 C-7.554687500000005 -19.5, -7.5546875000000036 -19.5, -7.5546875 -19.5 M-7.554687500000006 -19.5 C-7.554687500000004 -19.5, -7.5546875000000036 -19.5, -7.5546875 -19.5" stroke="#f97316" stroke-width="2" fill="none" stroke-dasharray="0 0" style="stroke:#f97316 !important;stroke-width:2px !important"/></g><g class="label" style="" transform="translate(-14.6796875, -12)"><rect/><foreignObject width="29.359375" height="24"><div xmlns="http://www.w3.org/1999/xhtml" style="display: table-cell; white-space: nowrap; line-height: 1.5; max-width: 200px; text-align: center;"><span class="nodeLabel"><p>ship</p></span></div></foreignObject></g></g><g class="node default ambient" id="my-svg-flowchart-tu-19" data-look="classic" transform="translate(350.7449903488159, 499)"><rect class="basic label-container" style="stroke:#a855f7 !important;stroke-width:2px !important" x="-38.8984375" y="-27" width="77.796875" height="54"/><g class="label" style="" transform="translate(-8.8984375, -12)"><rect/><foreignObject width="17.796875" height="24"><div xmlns="http://www.w3.org/1999/xhtml" style="display: table-cell; white-space: nowrap; line-height: 1.5; max-width: 200px; text-align: center;"><span class="nodeLabel"><p>tu </p></span></div></foreignObject></g></g></g></g></g><defs><filter id="my-svg-drop-shadow" height="130%" width="130%"><feDropShadow dx="4" dy="4" stdDeviation="0" flood-opacity="0.06" flood-color="#FFFFFF"/></filter></defs><defs><filter id="my-svg-drop-shadow-small" height="150%" width="150%"><feDropShadow dx="2" dy="2" stdDeviation="0" flood-opacity="0.06" flood-color="#FFFFFF"/></filter></defs><linearGradient id="my-svg-gradient" gradientUnits="objectBoundingBox" x1="0%" y1="0%" x2="100%" y2="0%"><stop offset="0%" stop-color="#cccccc" stop-opacity="1"/><stop offset="100%" stop-color="hsl(180, 0%, 18.3529411765%)" stop-opacity="1"/></linearGradient></svg>